<svg width="18" height="16" viewBox="0 0 18 16" fill="none" xmlns="http://www.w3.org/2000/svg">
<path d="M12.1996 4.79987L11.6996 4.79987L11.6996 4.79987L12.1996 4.79987ZM5.79961 4.79987L5.29961 4.79987L5.29961 4.79987L5.79961 4.79987ZM8.99961 7.99987L8.99961 8.49987L8.99961 7.99987ZM17.3876 14.3231L17.8816 14.246L17.3876 14.3231ZM17.3968 14.4775L17.8955 14.5134L17.3968 14.4775ZM0.611597 14.3231L0.117591 14.246L0.611597 14.3231ZM0.602393 14.4775L0.103683 14.5134L0.602393 14.4775ZM15.3968 1.52221L14.8981 1.55809L15.3968 1.52221ZM2.58762 1.67659L3.08163 1.75378L2.58762 1.67659ZM2.60239 1.52221L3.1011 1.55809L2.60239 1.52221ZM2.09362 1.5994L0.117591 14.246L1.1056 14.4003L3.08163 1.75378L2.09362 1.5994ZM1.66628 15.9665H16.3329V14.9665H1.66628V15.9665ZM17.8816 14.246L15.9056 1.5994L14.9176 1.75378L16.8936 14.4003L17.8816 14.246ZM14.3329 0.0332031H3.66628V1.0332H14.3329V0.0332031ZM15.8955 1.48632C15.8371 0.673831 15.16 0.0332031 14.3329 0.0332031V1.0332C14.6318 1.0332 14.877 1.26489 14.8981 1.55809L15.8955 1.48632ZM16.3329 15.9665C17.16 15.9665 17.8371 15.3259 17.8955 14.5134L16.8981 14.4416C16.877 14.7348 16.6318 14.9665 16.3329 14.9665V15.9665ZM0.103683 14.5134C0.162145 15.3259 0.839172 15.9665 1.66628 15.9665V14.9665C1.36741 14.9665 1.1222 14.7348 1.1011 14.4416L0.103683 14.5134ZM3.1011 1.55809C3.1222 1.26489 3.36741 1.0332 3.66628 1.0332V0.0332031C2.83917 0.0332031 2.16214 0.673831 2.10368 1.48632L3.1011 1.55809ZM11.6996 2.1332L11.6996 4.79987L12.6996 4.79987L12.6996 2.1332L11.6996 2.1332ZM6.29961 4.79987L6.29961 2.1332L5.29961 2.1332L5.29961 4.79987L6.29961 4.79987ZM8.99961 7.49987C7.50844 7.49987 6.29961 6.29104 6.29961 4.79987L5.29961 4.79987C5.29961 6.84332 6.95615 8.49987 8.99961 8.49987L8.99961 7.49987ZM11.6996 4.79987C11.6996 6.29104 10.4908 7.49987 8.99961 7.49987L8.99961 8.49987C11.0431 8.49987 12.6996 6.84332 12.6996 4.79987L11.6996 4.79987ZM16.8936 14.4003C16.8961 14.4163 16.8973 14.4271 16.8978 14.4344C16.8983 14.4415 16.898 14.4435 16.8981 14.4416L17.8955 14.5134C17.9031 14.4082 17.8923 14.3145 17.8816 14.246L16.8936 14.4003ZM0.117591 14.246C0.106883 14.3145 0.0961149 14.4082 0.103683 14.5134L1.1011 14.4416C1.10124 14.4435 1.10095 14.4415 1.10144 14.4344C1.10194 14.4271 1.10311 14.4163 1.1056 14.4003L0.117591 14.246ZM15.9056 1.5994C15.9016 1.57406 15.9 1.54787 15.8955 1.48632L14.8981 1.55809C14.9011 1.59966 14.9056 1.67699 14.9176 1.75378L15.9056 1.5994ZM3.08163 1.75378C3.09363 1.67699 3.09811 1.59966 3.1011 1.55809L2.10368 1.48632C2.09925 1.54787 2.09758 1.57406 2.09362 1.5994L3.08163 1.75378Z" fill="white"/>
</svg>
