<svg width="18" height="16" viewBox="0 0 18 16" fill="none" xmlns="http://www.w3.org/2000/svg">
<path d="M12.1996 2.1332L12.1996 4.79987C12.1996 6.56718 10.7669 7.99987 8.99961 7.99987C7.2323 7.99987 5.79961 6.56718 5.79961 4.79987L5.79961 2.1332M1.66628 15.4665H16.3329C16.8959 15.4665 17.357 15.0304 17.3968 14.4775C17.4005 14.426 17.3956 14.3742 17.3876 14.3231L15.4116 1.67659C15.4036 1.62552 15.4005 1.57377 15.3968 1.52221C15.357 0.96936 14.8959 0.533203 14.3329 0.533203H3.66628C3.10329 0.533203 2.64217 0.96936 2.60239 1.52221C2.59868 1.57377 2.5956 1.62552 2.58762 1.67659L0.611597 14.3231C0.603617 14.3742 0.598684 14.426 0.602393 14.4775C0.642173 15.0304 1.10329 15.4665 1.66628 15.4665Z" stroke="#BF1E77"/>
</svg>
