<svg width="36" height="36" viewBox="0 0 36 36" fill="none" xmlns="http://www.w3.org/2000/svg">
<circle cx="18" cy="18" r="17.5" stroke="#545155"/>
<path d="M23.1894 11.0762H13.086C11.9453 11.0762 11.0762 11.9453 11.0762 13.086V23.1894C11.0762 24.3301 11.9453 25.1993 13.086 25.1993H23.1894C24.3301 25.1993 25.1992 24.3301 25.1992 23.1894V13.086C25.1992 11.9453 24.3301 11.0762 23.1894 11.0762ZM18.1377 22.3746C20.4734 22.3746 22.3746 20.5278 22.3746 18.3007C22.3746 17.9204 22.3203 17.4859 22.2117 17.16H23.4067V22.9178C23.4067 23.1894 23.1894 23.461 22.8635 23.461H13.4119C13.1403 23.461 12.8687 23.2437 12.8687 22.9178V17.1056H14.1181C14.0094 17.4859 13.9551 17.8661 13.9551 18.2464C13.9008 20.5278 15.802 22.3746 18.1377 22.3746ZM18.1377 20.745C16.6168 20.745 15.4217 19.55 15.4217 18.0834C15.4217 16.6168 16.6168 15.4217 18.1377 15.4217C19.6587 15.4217 20.8537 16.6168 20.8537 18.0834C20.8537 19.6043 19.6587 20.745 18.1377 20.745ZM23.3524 14.9329C23.3524 15.2588 23.0808 15.5304 22.7549 15.5304H21.2339C20.908 15.5304 20.6364 15.2588 20.6364 14.9329V13.4662C20.6364 13.1403 20.908 12.8687 21.2339 12.8687H22.7549C23.0808 12.8687 23.3524 13.1403 23.3524 13.4662V14.9329Z" fill="#545155"/>
</svg>
