<svg width="18" height="18" viewBox="0 0 18 18" fill="none" xmlns="http://www.w3.org/2000/svg">
<path d="M9.00156 16.2003L8.64801 16.5538C8.84327 16.7491 9.15985 16.7491 9.35512 16.5538L9.00156 16.2003ZM1.8442 9.04293L1.49065 9.39649L1.49065 9.39649L1.8442 9.04293ZM7.8442 3.04293L7.49065 3.39649L7.49065 3.39649L7.8442 3.04293ZM9.00156 4.20029L8.64801 4.55385C8.84327 4.74911 9.15985 4.74911 9.35512 4.55385L9.00156 4.20029ZM10.1589 3.04293L9.80537 2.68938L9.80537 2.68938L10.1589 3.04293ZM9.35512 15.8467L2.19776 8.68938L1.49065 9.39649L8.64801 16.5538L9.35512 15.8467ZM15.8054 8.68938L8.64801 15.8467L9.35512 16.5538L16.5125 9.39649L15.8054 8.68938ZM7.49065 3.39649L8.64801 4.55385L9.35512 3.84674L8.19776 2.68938L7.49065 3.39649ZM9.35512 4.55385L10.5125 3.39649L9.80537 2.68938L8.64801 3.84674L9.35512 4.55385ZM13.1589 1.30029C11.9011 1.30029 10.6948 1.79996 9.80537 2.68938L10.5125 3.39649C11.2144 2.69461 12.1663 2.30029 13.1589 2.30029V1.30029ZM16.9016 6.04293C16.9016 7.03554 16.5072 7.9875 15.8054 8.68938L16.5125 9.39649C17.4019 8.50707 17.9016 7.30076 17.9016 6.04293H16.9016ZM17.9016 6.04293C17.9016 3.42365 15.7782 1.30029 13.1589 1.30029V2.30029C15.2259 2.30029 16.9016 3.97593 16.9016 6.04293H17.9016ZM4.8442 2.30029C5.83681 2.30029 6.78877 2.69461 7.49065 3.39649L8.19776 2.68938C7.30834 1.79996 6.10203 1.30029 4.8442 1.30029V2.30029ZM1.10156 6.04293C1.10156 3.97593 2.7772 2.30029 4.8442 2.30029V1.30029C2.22491 1.30029 0.101562 3.42365 0.101562 6.04293H1.10156ZM2.19776 8.68938C1.49587 7.9875 1.10156 7.03554 1.10156 6.04293H0.101562C0.101562 7.30076 0.601231 8.50707 1.49065 9.39649L2.19776 8.68938Z" fill="#BF1E77"/>
</svg>
