<svg width="57" height="76" viewBox="0 0 57 76" fill="none" xmlns="http://www.w3.org/2000/svg">
<path fill-rule="evenodd" clip-rule="evenodd" d="M25.072 0.210388C9.94305 2.04224 -1.10575 15.348 0.0883149 30.2977C0.919892 40.7086 6.92962 52.4377 17.976 65.2091C20.1706 67.7463 24.3142 72.069 26.5274 74.1301L28.5351 76L29.6978 74.984C31.5734 73.3451 36.7547 68.1888 38.6253 66.0995C48.2966 55.2974 54.3728 44.6767 56.3269 35.158C56.8683 32.5209 57.0143 30.9726 56.9989 28.0347C56.9815 24.7202 56.7116 22.8652 55.8285 19.9899C51.8085 6.90236 38.8152 -1.45363 25.072 0.210388ZM31.8039 10.763C38.4405 11.9189 43.8538 16.9406 45.6233 23.5827C46.145 25.5413 46.2635 28.5758 45.9014 30.7125C45.2826 34.3654 43.6552 37.4647 40.9471 40.1476C34.0864 46.9445 22.9736 46.9445 16.1129 40.1476C13.4376 37.497 11.8259 34.4545 11.1639 30.8048C10.82 28.909 10.9184 25.578 11.3708 23.7921C12.7586 18.3144 16.6472 13.8534 21.8646 11.7539C25.0484 10.4727 28.2848 10.15 31.8039 10.763Z" fill="#BF1E77"/>
</svg>
