<svg width="16" height="18" viewBox="0 0 16 18" fill="none" xmlns="http://www.w3.org/2000/svg">
<path d="M13.436 17V17.5H13.936V17H13.436ZM2 17H1.5V17.5H2V17ZM10.6488 4.42857C10.6488 6.04583 9.33712 7.35714 7.71801 7.35714V8.35714C9.88879 8.35714 11.6488 6.59873 11.6488 4.42857H10.6488ZM7.71801 7.35714C6.0989 7.35714 4.7872 6.04583 4.7872 4.42857H3.7872C3.7872 6.59873 5.54723 8.35714 7.71801 8.35714V7.35714ZM4.7872 4.42857C4.7872 2.81131 6.0989 1.5 7.71801 1.5V0.5C5.54723 0.5 3.7872 2.25841 3.7872 4.42857H4.7872ZM7.71801 1.5C9.33712 1.5 10.6488 2.81131 10.6488 4.42857H11.6488C11.6488 2.25841 9.88879 0.5 7.71801 0.5V1.5ZM13.436 16.5H2V17.5H13.436V16.5ZM2.5 17C2.5 16.9984 2.5 16.9968 2.5 16.9952C2.5 16.9937 2.5 16.9921 2.5 16.9905C2.5 16.9889 2.5 16.9873 2.5 16.9857C2.5 16.9841 2.5 16.9826 2.5 16.981C2.5 16.9794 2.5 16.9778 2.5 16.9762C2.5 16.9746 2.5 16.9731 2.5 16.9715C2.5 16.9699 2.5 16.9683 2.5 16.9667C2.5 16.9651 2.5 16.9635 2.5 16.962C2.5 16.9604 2.5 16.9588 2.5 16.9572C2.5 16.9556 2.5 16.954 2.5 16.9525C2.5 16.9509 2.5 16.9493 2.5 16.9477C2.5 16.9461 2.5 16.9446 2.5 16.943C2.5 16.9414 2.5 16.9398 2.5 16.9382C2.5 16.9366 2.5 16.9351 2.5 16.9335C2.5 16.9319 2.5 16.9303 2.5 16.9287C2.5 16.9272 2.5 16.9256 2.5 16.924C2.5 16.9224 2.5 16.9208 2.5 16.9192C2.5 16.9177 2.5 16.9161 2.5 16.9145C2.5 16.9129 2.5 16.9113 2.5 16.9098C2.5 16.9082 2.5 16.9066 2.5 16.905C2.5 16.9034 2.5 16.9019 2.5 16.9003C2.5 16.8987 2.5 16.8971 2.5 16.8955C2.5 16.894 2.5 16.8924 2.5 16.8908C2.5 16.8892 2.5 16.8877 2.5 16.8861C2.5 16.8845 2.5 16.8829 2.5 16.8813C2.5 16.8798 2.5 16.8782 2.5 16.8766C2.5 16.875 2.5 16.8734 2.5 16.8719C2.5 16.8703 2.5 16.8687 2.5 16.8671C2.5 16.8656 2.5 16.864 2.5 16.8624C2.5 16.8608 2.5 16.8593 2.5 16.8577C2.5 16.8561 2.5 16.8545 2.5 16.8529C2.5 16.8514 2.5 16.8498 2.5 16.8482C2.5 16.8466 2.5 16.8451 2.5 16.8435C2.5 16.8419 2.5 16.8403 2.5 16.8388C2.5 16.8372 2.5 16.8356 2.5 16.834C2.5 16.8325 2.5 16.8309 2.5 16.8293C2.5 16.8277 2.5 16.8262 2.5 16.8246C2.5 16.823 2.5 16.8214 2.5 16.8199C2.5 16.8183 2.5 16.8167 2.5 16.8151C2.5 16.8136 2.5 16.812 2.5 16.8104C2.5 16.8089 2.5 16.8073 2.5 16.8057C2.5 16.8041 2.5 16.8026 2.5 16.801C2.5 16.7994 2.5 16.7978 2.5 16.7963C2.5 16.7947 2.5 16.7931 2.5 16.7916C2.5 16.79 2.5 16.7884 2.5 16.7868C2.5 16.7853 2.5 16.7837 2.5 16.7821C2.5 16.7805 2.5 16.779 2.5 16.7774C2.5 16.7758 2.5 16.7743 2.5 16.7727C2.5 16.7711 2.5 16.7696 2.5 16.768C2.5 16.7664 2.5 16.7648 2.5 16.7633C2.5 16.7617 2.5 16.7601 2.5 16.7586C2.5 16.757 2.5 16.7554 2.5 16.7538C2.5 16.7523 2.5 16.7507 2.5 16.7491C2.5 16.7476 2.5 16.746 2.5 16.7444C2.5 16.7429 2.5 16.7413 2.5 16.7397C2.5 16.7382 2.5 16.7366 2.5 16.735C2.5 16.7335 2.5 16.7319 2.5 16.7303C2.5 16.7287 2.5 16.7272 2.5 16.7256C2.5 16.724 2.5 16.7225 2.5 16.7209C2.5 16.7193 2.5 16.7178 2.5 16.7162C2.5 16.7146 2.5 16.7131 2.5 16.7115C2.5 16.7099 2.5 16.7084 2.5 16.7068C2.5 16.7052 2.5 16.7037 2.5 16.7021C2.5 16.7005 2.5 16.699 2.5 16.6974C2.5 16.6958 2.5 16.6943 2.5 16.6927C2.5 16.6912 2.5 16.6896 2.5 16.688C2.5 16.6865 2.5 16.6849 2.5 16.6833C2.5 16.6818 2.5 16.6802 2.5 16.6786C2.5 16.6771 2.5 16.6755 2.5 16.6739C2.5 16.6724 2.5 16.6708 2.5 16.6693C2.5 16.6677 2.5 16.6661 2.5 16.6646C2.5 16.663 2.5 16.6614 2.5 16.6599C2.5 16.6583 2.5 16.6567 2.5 16.6552C2.5 16.6536 2.5 16.6521 2.5 16.6505C2.5 16.6489 2.5 16.6474 2.5 16.6458C2.5 16.6442 2.5 16.6427 2.5 16.6411C2.5 16.6396 2.5 16.638 2.5 16.6364C2.5 16.6349 2.5 16.6333 2.5 16.6318C2.5 16.6302 2.5 16.6286 2.5 16.6271C2.5 16.6255 2.5 16.624 2.5 16.6224C2.5 16.6208 2.5 16.6193 2.5 16.6177C2.5 16.6162 2.5 16.6146 2.5 16.613C2.5 16.6115 2.5 16.6099 2.5 16.6084C2.5 16.6068 2.5 16.6052 2.5 16.6037C2.5 16.6021 2.5 16.6006 2.5 16.599C2.5 16.5974 2.5 16.5959 2.5 16.5943C2.5 16.5928 2.5 16.5912 2.5 16.5897C2.5 16.5881 2.5 16.5865 2.5 16.585C2.5 16.5834 2.5 16.5819 2.5 16.5803C2.5 16.5788 2.5 16.5772 2.5 16.5756C2.5 16.5741 2.5 16.5725 2.5 16.571C2.5 16.5694 2.5 16.5679 2.5 16.5663C2.5 16.5647 2.5 16.5632 2.5 16.5616C2.5 16.5601 2.5 16.5585 2.5 16.557C2.5 16.5554 2.5 16.5539 2.5 16.5523C2.5 16.5507 2.5 16.5492 2.5 16.5476C2.5 16.5461 2.5 16.5445 2.5 16.543C2.5 16.5414 2.5 16.5399 2.5 16.5383C2.5 16.5368 2.5 16.5352 2.5 16.5336C2.5 16.5321 2.5 16.5305 2.5 16.529C2.5 16.5274 2.5 16.5259 2.5 16.5243C2.5 16.5228 2.5 16.5212 2.5 16.5197C2.5 16.5181 2.5 16.5166 2.5 16.515C2.5 16.5135 2.5 16.5119 2.5 16.5104C2.5 16.5088 2.5 16.5072 2.5 16.5057C2.5 16.5041 2.5 16.5026 2.5 16.501C2.5 16.4995 2.5 16.4979 2.5 16.4964C2.5 16.4948 2.5 16.4933 2.5 16.4917C2.5 16.4902 2.5 16.4886 2.5 16.4871C2.5 16.4855 2.5 16.484 2.5 16.4824C2.5 16.4809 2.5 16.4793 2.5 16.4778C2.5 16.4762 2.5 16.4747 2.5 16.4731C2.5 16.4716 2.5 16.47 2.5 16.4685C2.5 16.4669 2.5 16.4654 2.5 16.4638C2.5 16.4623 2.5 16.4608 2.5 16.4592C2.5 16.4577 2.5 16.4561 2.5 16.4546C2.5 16.453 2.5 16.4515 2.5 16.4499C2.5 16.4484 2.5 16.4468 2.5 16.4453C2.5 16.4437 2.5 16.4422 2.5 16.4406C2.5 16.4391 2.5 16.4375 2.5 16.436C2.5 16.4345 2.5 16.4329 2.5 16.4314C2.5 16.4298 2.5 16.4283 2.5 16.4267C2.5 16.4252 2.5 16.4236 2.5 16.4221C2.5 16.4205 2.5 16.419 2.5 16.4175C2.5 16.4159 2.5 16.4144 2.5 16.4128C2.5 16.4113 2.5 16.4097 2.5 16.4082C2.5 16.4066 2.5 16.4051 2.5 16.4036C2.5 16.402 2.5 16.4005 2.5 16.3989C2.5 16.3974 2.5 16.3958 2.5 16.3943C2.5 16.3928 2.5 16.3912 2.5 16.3897C2.5 16.3881 2.5 16.3866 2.5 16.385C2.5 16.3835 2.5 16.382 2.5 16.3804C2.5 16.3789 2.5 16.3773 2.5 16.3758C2.5 16.3742 2.5 16.3727 2.5 16.3712C2.5 16.3696 2.5 16.3681 2.5 16.3665C2.5 16.365 2.5 16.3635 2.5 16.3619C2.5 16.3604 2.5 16.3588 2.5 16.3573C2.5 16.3558 2.5 16.3542 2.5 16.3527C2.5 16.3511 2.5 16.3496 2.5 16.3481C2.5 16.3465 2.5 16.345 2.5 16.3434C2.5 16.3419 2.5 16.3404 2.5 16.3388C2.5 16.3373 2.5 16.3358 2.5 16.3342C2.5 16.3327 2.5 16.3311 2.5 16.3296C2.5 16.3281 2.5 16.3265 2.5 16.325C2.5 16.3235 2.5 16.3219 2.5 16.3204C2.5 16.3188 2.5 16.3173 2.5 16.3158C2.5 16.3142 2.5 16.3127 2.5 16.3112C2.5 16.3096 2.5 16.3081 2.5 16.3065C2.5 16.305 2.5 16.3035 2.5 16.3019C2.5 16.3004 2.5 16.2989 2.5 16.2973C2.5 16.2958 2.5 16.2943 2.5 16.2927C2.5 16.2912 2.5 16.2897 2.5 16.2881C2.5 16.2866 2.5 16.2851 2.5 16.2835C2.5 16.282 2.5 16.2805 2.5 16.2789C2.5 16.2774 2.5 16.2759 2.5 16.2743C2.5 16.2728 2.5 16.2713 2.5 16.2697C2.5 16.2682 2.5 16.2667 2.5 16.2651C2.5 16.2636 2.5 16.2621 2.5 16.2605C2.5 16.259 2.5 16.2575 2.5 16.2559C2.5 16.2544 2.5 16.2529 2.5 16.2513C2.5 16.2498 2.5 16.2483 2.5 16.2467C2.5 16.2452 2.5 16.2437 2.5 16.2422C2.5 16.2406 2.5 16.2391 2.5 16.2376C2.5 16.236 2.5 16.2345 2.5 16.233C2.5 16.2314 2.5 16.2299 2.5 16.2284C2.5 16.2269 2.5 16.2253 2.5 16.2238C2.5 16.2223 2.5 16.2207 2.5 16.2192C2.5 16.2177 2.5 16.2162 2.5 16.2146C2.5 16.2131 2.5 16.2116 2.5 16.21C2.5 16.2085 2.5 16.207 2.5 16.2055C2.5 16.2039 2.5 16.2024 2.5 16.2009C2.5 16.1993 2.5 16.1978 2.5 16.1963C2.5 16.1948 2.5 16.1932 2.5 16.1917C2.5 16.1902 2.5 16.1887 2.5 16.1871C2.5 16.1856 2.5 16.1841 2.5 16.1826C2.5 16.181 2.5 16.1795 2.5 16.178C2.5 16.1765 2.5 16.1749 2.5 16.1734C2.5 16.1719 2.5 16.1704 2.5 16.1688C2.5 16.1673 2.5 16.1658 2.5 16.1643C2.5 16.1627 2.5 16.1612 2.5 16.1597C2.5 16.1582 2.5 16.1566 2.5 16.1551C2.5 16.1536 2.5 16.1521 2.5 16.1505C2.5 16.149 2.5 16.1475 2.5 16.146C2.5 16.1445 2.5 16.1429 2.5 16.1414C2.5 16.1399 2.5 16.1384 2.5 16.1368C2.5 16.1353 2.5 16.1338 2.5 16.1323C2.5 16.1308 2.5 16.1292 2.5 16.1277C2.5 16.1262 2.5 16.1247 2.5 16.1232C2.5 16.1216 2.5 16.1201 2.5 16.1186C2.5 16.1171 2.5 16.1156 2.5 16.114C2.5 16.1125 2.5 16.111 2.5 16.1095C2.5 16.108 2.5 16.1064 2.5 16.1049C2.5 16.1034 2.5 16.1019 2.5 16.1004C2.5 16.0988 2.5 16.0973 2.5 16.0958C2.5 16.0943 2.5 16.0928 2.5 16.0913C2.5 16.0897 2.5 16.0882 2.5 16.0867C2.5 16.0852 2.5 16.0837 2.5 16.0822C2.5 16.0806 2.5 16.0791 2.5 16.0776C2.5 16.0761 2.5 16.0746 2.5 16.0731C2.5 16.0715 2.5 16.07 2.5 16.0685C2.5 16.067 2.5 16.0655 2.5 16.064C2.5 16.0624 2.5 16.0609 2.5 16.0594C2.5 16.0579 2.5 16.0564 2.5 16.0549C2.5 16.0534 2.5 16.0518 2.5 16.0503C2.5 16.0488 2.5 16.0473 2.5 16.0458C2.5 16.0443 2.5 16.0428 2.5 16.0412C2.5 16.0397 2.5 16.0382 2.5 16.0367C2.5 16.0352 2.5 16.0337 2.5 16.0322C2.5 16.0307 2.5 16.0291 2.5 16.0276C2.5 16.0261 2.5 16.0246 2.5 16.0231C2.5 16.0216 2.5 16.0201 2.5 16.0186C2.5 16.0171 2.5 16.0155 2.5 16.014C2.5 16.0125 2.5 16.011 2.5 16.0095C2.5 16.008 2.5 16.0065 2.5 16.005C2.5 16.0035 2.5 16.0019 2.5 16.0004C2.5 15.9989 2.5 15.9974 2.5 15.9959C2.5 15.9944 2.5 15.9929 2.5 15.9914C2.5 15.9899 2.5 15.9884 2.5 15.9869C2.5 15.9853 2.5 15.9838 2.5 15.9823C2.5 15.9808 2.5 15.9793 2.5 15.9778C2.5 15.9763 2.5 15.9748 2.5 15.9733C2.5 15.9718 2.5 15.9703 2.5 15.9688C2.5 15.9673 2.5 15.9658 2.5 15.9642C2.5 15.9627 2.5 15.9612 2.5 15.9597C2.5 15.9582 2.5 15.9567 2.5 15.9552C2.5 15.9537 2.5 15.9522 2.5 15.9507C2.5 15.9492 2.5 15.9477 2.5 15.9462C2.5 15.9447 2.5 15.9432 2.5 15.9417C2.5 15.9402 2.5 15.9387 2.5 15.9372C2.5 15.9356 2.5 15.9341 2.5 15.9326C2.5 15.9311 2.5 15.9296 2.5 15.9281C2.5 15.9266 2.5 15.9251 2.5 15.9236C2.5 15.9221 2.5 15.9206 2.5 15.9191C2.5 15.9176 2.5 15.9161 2.5 15.9146C2.5 15.9131 2.5 15.9116 2.5 15.9101C2.5 15.9086 2.5 15.9071 2.5 15.9056C2.5 15.9041 2.5 15.9026 2.5 15.9011C2.5 15.8996 2.5 15.8981 2.5 15.8966C2.5 15.8951 2.5 15.8936 2.5 15.8921C2.5 15.8906 2.5 15.8891 2.5 15.8876C2.5 15.8861 2.5 15.8846 2.5 15.8831C2.5 15.8816 2.5 15.8801 2.5 15.8786C2.5 15.8771 2.5 15.8756 2.5 15.8741C2.5 15.8726 2.5 15.8711 2.5 15.8696C2.5 15.8681 2.5 15.8666 2.5 15.8651C2.5 15.8636 2.5 15.8621 2.5 15.8606C2.5 15.8591 2.5 15.8576 2.5 15.8561C2.5 15.8547 2.5 15.8532 2.5 15.8517C2.5 15.8502 2.5 15.8487 2.5 15.8472C2.5 15.8457 2.5 15.8442 2.5 15.8427C2.5 15.8412 2.5 15.8397 2.5 15.8382C2.5 15.8367 2.5 15.8352 2.5 15.8337C2.5 15.8322 2.5 15.8307 2.5 15.8292C2.5 15.8277 2.5 15.8263 2.5 15.8248C2.5 15.8233 2.5 15.8218 2.5 15.8203C2.5 15.8188 2.5 15.8173 2.5 15.8158C2.5 15.8143 2.5 15.8128 2.5 15.8113C2.5 15.8098 2.5 15.8083 2.5 15.8068C2.5 15.8054 2.5 15.8039 2.5 15.8024C2.5 15.8009 2.5 15.7994 2.5 15.7979C2.5 15.7964 2.5 15.7949 2.5 15.7934C2.5 15.7919 2.5 15.7904 2.5 15.789C2.5 15.7875 2.5 15.786 2.5 15.7845C2.5 15.783 2.5 15.7815 2.5 15.78C2.5 15.7785 2.5 15.777 2.5 15.7756C2.5 15.7741 2.5 15.7726 2.5 15.7711C2.5 15.7696 2.5 15.7681 2.5 15.7666C2.5 15.7651 2.5 15.7637 2.5 15.7622C2.5 15.7607 2.5 15.7592 2.5 15.7577C2.5 15.7562 2.5 15.7547 2.5 15.7532C2.5 15.7518 2.5 15.7503 2.5 15.7488C2.5 15.7473 2.5 15.7458 2.5 15.7443C2.5 15.7428 2.5 15.7414 2.5 15.7399C2.5 15.7384 2.5 15.7369 2.5 15.7354C2.5 15.7339 2.5 15.7324 2.5 15.731C2.5 15.7295 2.5 15.728 2.5 15.7265C2.5 15.725 2.5 15.7235 2.5 15.7221C2.5 15.7206 2.5 15.7191 2.5 15.7176C2.5 15.7161 2.5 15.7146 2.5 15.7132C2.5 15.7117 2.5 15.7102 2.5 15.7087C2.5 15.7072 2.5 15.7058 2.5 15.7043C2.5 15.7028 2.5 15.7013 2.5 15.6998C2.5 15.6983 2.5 15.6969 2.5 15.6954C2.5 15.6939 2.5 15.6924 2.5 15.6909C2.5 15.6895 2.5 15.688 2.5 15.6865C2.5 15.685 2.5 15.6835 2.5 15.6821C2.5 15.6806 2.5 15.6791 2.5 15.6776C2.5 15.6761 2.5 15.6747 2.5 15.6732C2.5 15.6717 2.5 15.6702 2.5 15.6688C2.5 15.6673 2.5 15.6658 2.5 15.6643C2.5 15.6628 2.5 15.6614 2.5 15.6599C2.5 15.6584 2.5 15.6569 2.5 15.6555C2.5 15.654 2.5 15.6525 2.5 15.651C2.5 15.6496 2.5 15.6481 2.5 15.6466C2.5 15.6451 2.5 15.6437 2.5 15.6422C2.5 15.6407 2.5 15.6392 2.5 15.6377C2.5 15.6363 2.5 15.6348 2.5 15.6333C2.5 15.6319 2.5 15.6304 2.5 15.6289C2.5 15.6274 2.5 15.626 2.5 15.6245C2.5 15.623 2.5 15.6215 2.5 15.6201C2.5 15.6186 2.5 15.6171 2.5 15.6156C2.5 15.6142 2.5 15.6127 2.5 15.6112C2.5 15.6098 2.5 15.6083 2.5 15.6068C2.5 15.6053 2.5 15.6039 2.5 15.6024C2.5 15.6009 2.5 15.5995 2.5 15.598C2.5 15.5965 2.5 15.595 2.5 15.5936C2.5 15.5921 2.5 15.5906 2.5 15.5892C2.5 15.5877 2.5 15.5862 2.5 15.5848C2.5 15.5833 2.5 15.5818 2.5 15.5803C2.5 15.5789 2.5 15.5774 2.5 15.5759C2.5 15.5745 2.5 15.573 2.5 15.5715C2.5 15.5701 2.5 15.5686 2.5 15.5671C2.5 15.5657 2.5 15.5642 2.5 15.5627C2.5 15.5613 2.5 15.5598 2.5 15.5583C2.5 15.5569 2.5 15.5554 2.5 15.5539C2.5 15.5525 2.5 15.551 2.5 15.5495C2.5 15.5481 2.5 15.5466 2.5 15.5451C2.5 15.5437 2.5 15.5422 2.5 15.5407C2.5 15.5393 2.5 15.5378 2.5 15.5363C2.5 15.5349 2.5 15.5334 2.5 15.5319C2.5 15.5305 2.5 15.529 2.5 15.5276C2.5 15.5261 2.5 15.5246 2.5 15.5232C2.5 15.5217 2.5 15.5202 2.5 15.5188C2.5 15.5173 2.5 15.5159 2.5 15.5144C2.5 15.5129 2.5 15.5115 2.5 15.51C2.5 15.5085 2.5 15.5071 2.5 15.5056C2.5 15.5042 2.5 15.5027 2.5 15.5012C2.5 15.4998 2.5 15.4983 2.5 15.4969C2.5 15.4954 2.5 15.4939 2.5 15.4925C2.5 15.491 2.5 15.4896 2.5 15.4881C2.5 15.4866 2.5 15.4852 2.5 15.4837C2.5 15.4823 2.5 15.4808 2.5 15.4793C2.5 15.4779 2.5 15.4764 2.5 15.475C2.5 15.4735 2.5 15.4721 2.5 15.4706C2.5 15.4691 2.5 15.4677 2.5 15.4662C2.5 15.4648 2.5 15.4633 2.5 15.4619C2.5 15.4604 2.5 15.4589 2.5 15.4575C2.5 15.456 2.5 15.4546 2.5 15.4531C2.5 15.4517 2.5 15.4502 2.5 15.4488C2.5 15.4473 2.5 15.4458 2.5 15.4444C2.5 15.4429 2.5 15.4415 2.5 15.44C2.5 15.4386 2.5 15.4371 2.5 15.4357C2.5 15.4342 2.5 15.4328 2.5 15.4313C2.5 15.4298 2.5 15.4284 2.5 15.4269C2.5 15.4255 2.5 15.424 2.5 15.4226C2.5 15.4211 2.5 15.4197 2.5 15.4182C2.5 15.4168 2.5 15.4153 2.5 15.4139C2.5 15.4124 2.5 15.411 2.5 15.4095C2.5 15.4081 2.5 15.4066 2.5 15.4052C2.5 15.4037 2.5 15.4023 2.5 15.4008C2.5 15.3994 2.5 15.3979 2.5 15.3965C2.5 15.395 2.5 15.3936 2.5 15.3921C2.5 15.3907 2.5 15.3892 2.5 15.3878C2.5 15.3863 2.5 15.3849 2.5 15.3834C2.5 15.382 2.5 15.3805 2.5 15.3791C2.5 15.3776 2.5 15.3762 2.5 15.3747C2.5 15.3733 2.5 15.3719 2.5 15.3704C2.5 15.369 2.5 15.3675 2.5 15.3661C2.5 15.3646 2.5 15.3632 2.5 15.3617C2.5 15.3603 2.5 15.3588 2.5 15.3574C2.5 15.3559 2.5 15.3545 2.5 15.3531C2.5 15.3516 2.5 15.3502 2.5 15.3487C2.5 15.3473 2.5 15.3458 2.5 15.3444C2.5 15.3429 2.5 15.3415 2.5 15.3401C2.5 15.3386 2.5 15.3372 2.5 15.3357C2.5 15.3343 2.5 15.3328 2.5 15.3314C2.5 15.33 2.5 15.3285 2.5 15.3271C2.5 15.3256 2.5 15.3242 2.5 15.3228C2.5 15.3213 2.5 15.3199 2.5 15.3184C2.5 15.317 2.5 15.3155 2.5 15.3141C2.5 15.3127 2.5 15.3112 2.5 15.3098C2.5 15.3083 2.5 15.3069 2.5 15.3055C2.5 15.304 2.5 15.3026 2.5 15.3012C2.5 15.2997 2.5 15.2983 2.5 15.2968C2.5 15.2954 2.5 15.294 2.5 15.2925C2.5 15.2911 2.5 15.2896 2.5 15.2882C2.5 15.2868 2.5 15.2853 2.5 15.2839C2.5 15.2825 2.5 15.281 2.5 15.2796C2.5 15.2782 2.5 15.2767 2.5 15.2753C2.5 15.2738 2.5 15.2724 2.5 15.271C2.5 15.2695 2.5 15.2681 2.5 15.2667C2.5 15.2652 2.5 15.2638 2.5 15.2624C2.5 15.2609 2.5 15.2595 2.5 15.2581C2.5 15.2566 2.5 15.2552 2.5 15.2538C2.5 15.2523 2.5 15.2509 2.5 15.2495C2.5 15.248 2.5 15.2466 2.5 15.2452C2.5 15.2437 2.5 15.2423 2.5 15.2409C2.5 15.2394 2.5 15.238 2.5 15.2366C2.5 15.2351 2.5 15.2337 2.5 15.2323C2.5 15.2308 2.5 15.2294 2.5 15.228C2.5 15.2266 2.5 15.2251 2.5 15.2237C2.5 15.2223 2.5 15.2208 2.5 15.2194C2.5 15.218 2.5 15.2165 2.5 15.2151C2.5 15.2137 2.5 15.2123 2.5 15.2108C2.5 15.2094 2.5 15.208 2.5 15.2065C2.5 15.2051 2.5 15.2037 2.5 15.2023C2.5 15.2008 2.5 15.1994 2.5 15.198C2.5 15.1966 2.5 15.1951 2.5 15.1937C2.5 15.1923 2.5 15.1908 2.5 15.1894C2.5 15.188 2.5 15.1866 2.5 15.1851C2.5 15.1837 2.5 15.1823 2.5 15.1809C2.5 15.1794 2.5 15.178 2.5 15.1766C2.5 15.1752 2.5 15.1737 2.5 15.1723C2.5 15.1709 2.5 15.1695 2.5 15.168C2.5 15.1666 2.5 15.1652 2.5 15.1638C2.5 15.1624 2.5 15.1609 2.5 15.1595C2.5 15.1581 2.5 15.1567 2.5 15.1552C2.5 15.1538 2.5 15.1524 2.5 15.151C2.5 15.1496 2.5 15.1481 2.5 15.1467C2.5 15.1453 2.5 15.1439 2.5 15.1425C2.5 15.141 2.5 15.1396 2.5 15.1382C2.5 15.1368 2.5 15.1354 2.5 15.1339C2.5 15.1325 2.5 15.1311 2.5 15.1297C2.5 15.1283 2.5 15.1268 2.5 15.1254C2.5 15.124 2.5 15.1226 2.5 15.1212C2.5 15.1197 2.5 15.1183 2.5 15.1169C2.5 15.1155 2.5 15.1141 2.5 15.1127C2.5 15.1112 2.5 15.1098 2.5 15.1084C2.5 15.107 2.5 15.1056 2.5 15.1042C2.5 15.1027 2.5 15.1013 2.5 15.0999C2.5 15.0985 2.5 15.0971 2.5 15.0957C2.5 15.0943 2.5 15.0928 2.5 15.0914C2.5 15.09 2.5 15.0886 2.5 15.0872C2.5 15.0858 2.5 15.0844 2.5 15.0829C2.5 15.0815 2.5 15.0801 2.5 15.0787C2.5 15.0773 2.5 15.0759 2.5 15.0745C2.5 15.0731 2.5 15.0716 2.5 15.0702C2.5 15.0688 2.5 15.0674 2.5 15.066C2.5 15.0646 2.5 15.0632 2.5 15.0618C2.5 15.0603 2.5 15.0589 2.5 15.0575C2.5 15.0561 2.5 15.0547 2.5 15.0533C2.5 15.0519 2.5 15.0505 2.5 15.0491C2.5 15.0477 2.5 15.0463 2.5 15.0448C2.5 15.0434 2.5 15.042 2.5 15.0406C2.5 15.0392 2.5 15.0378 2.5 15.0364C2.5 15.035 2.5 15.0336 2.5 15.0322C2.5 15.0308 2.5 15.0294 2.5 15.0279C2.5 15.0265 2.5 15.0251 2.5 15.0237C2.5 15.0223 2.5 15.0209 2.5 15.0195C2.5 15.0181 2.5 15.0167 2.5 15.0153C2.5 15.0139 2.5 15.0125 2.5 15.0111C2.5 15.0097 2.5 15.0083 2.5 15.0069C2.5 15.0055 2.5 15.0041 2.5 15.0027C2.5 15.0013 2.5 14.9999 2.5 14.9984C2.5 14.997 2.5 14.9956 2.5 14.9942C2.5 14.9928 2.5 14.9914 2.5 14.99C2.5 14.9886 2.5 14.9872 2.5 14.9858C2.5 14.9844 2.5 14.983 2.5 14.9816C2.5 14.9802 2.5 14.9788 2.5 14.9774C2.5 14.976 2.5 14.9746 2.5 14.9732C2.5 14.9718 2.5 14.9704 2.5 14.969C2.5 14.9676 2.5 14.9662 2.5 14.9648C2.5 14.9634 2.5 14.962 2.5 14.9606C2.5 14.9592 2.5 14.9578 2.5 14.9564C2.5 14.955 2.5 14.9536 2.5 14.9522C2.5 14.9508 2.5 14.9494 2.5 14.9481C2.5 14.9467 2.5 14.9453 2.5 14.9439C2.5 14.9425 2.5 14.9411 2.5 14.9397C2.5 14.9383 2.5 14.9369 2.5 14.9355C2.5 14.9341 2.5 14.9327 2.5 14.9313C2.5 14.9299 2.5 14.9285 2.5 14.9271C2.5 14.9257 2.5 14.9243 2.5 14.9229C2.5 14.9215 2.5 14.9202 2.5 14.9188C2.5 14.9174 2.5 14.916 2.5 14.9146C2.5 14.9132 2.5 14.9118 2.5 14.9104C2.5 14.909 2.5 14.9076 2.5 14.9062C2.5 14.9048 2.5 14.9034 2.5 14.9021C2.5 14.9007 2.5 14.8993 2.5 14.8979C2.5 14.8965 2.5 14.8951 2.5 14.8937C2.5 14.8923 2.5 14.8909 2.5 14.8895C2.5 14.8882 2.5 14.8868 2.5 14.8854C2.5 14.884 2.5 14.8826 2.5 14.8812C2.5 14.8798 2.5 14.8784 2.5 14.8771C2.5 14.8757 2.5 14.8743 2.5 14.8729C2.5 14.8715 2.5 14.8701 2.5 14.8687C2.5 14.8673 2.5 14.866 2.5 14.8646C2.5 14.8632 2.5 14.8618 2.5 14.8604C2.5 14.859 2.5 14.8576 2.5 14.8563C2.5 14.8549 2.5 14.8535 2.5 14.8521C2.5 14.8507 2.5 14.8493 2.5 14.848C2.5 14.8466 2.5 14.8452 2.5 14.8438C2.5 14.8424 2.5 14.841 2.5 14.8397C2.5 14.8383 2.5 14.8369 2.5 14.8355C2.5 14.8341 2.5 14.8327 2.5 14.8314C2.5 14.83 2.5 14.8286 2.5 14.8272C2.5 14.8258 2.5 14.8245 2.5 14.8231C2.5 14.8217 2.5 14.8203 2.5 14.8189C2.5 14.8175 2.5 14.8162 2.5 14.8148C2.5 14.8134 2.5 14.812 2.5 14.8107C2.5 14.8093 2.5 14.8079 2.5 14.8065C2.5 14.8051 2.5 14.8038 2.5 14.8024C2.5 14.801 2.5 14.7996 2.5 14.7982C2.5 14.7969 2.5 14.7955 2.5 14.7941C2.5 14.7927 2.5 14.7914 2.5 14.79C2.5 14.7886 2.5 14.7872 2.5 14.7859C2.5 14.7845 2.5 14.7831 2.5 14.7817C2.5 14.7804 2.5 14.779 2.5 14.7776C2.5 14.7762 2.5 14.7749 2.5 14.7735C2.5 14.7721 2.5 14.7707 2.5 14.7694C2.5 14.768 2.5 14.7666 2.5 14.7652C2.5 14.7639 2.5 14.7625 2.5 14.7611C2.5 14.7598 2.5 14.7584 2.5 14.757C2.5 14.7556 2.5 14.7543 2.5 14.7529C2.5 14.7515 2.5 14.7502 2.5 14.7488C2.5 14.7474 2.5 14.746 2.5 14.7447C2.5 14.7433 2.5 14.7419 2.5 14.7406C2.5 14.7392 2.5 14.7378 2.5 14.7365C2.5 14.7351 2.5 14.7337 2.5 14.7323C2.5 14.731 2.5 14.7296 2.5 14.7282C2.5 14.7269 2.5 14.7255 2.5 14.7241C2.5 14.7228 2.5 14.7214 2.5 14.72C2.5 14.7187 2.5 14.7173 2.5 14.7159H1.5C1.5 14.7173 1.5 14.7187 1.5 14.72C1.5 14.7214 1.5 14.7228 1.5 14.7241C1.5 14.7255 1.5 14.7269 1.5 14.7282C1.5 14.7296 1.5 14.731 1.5 14.7323C1.5 14.7337 1.5 14.7351 1.5 14.7365C1.5 14.7378 1.5 14.7392 1.5 14.7406C1.5 14.7419 1.5 14.7433 1.5 14.7447C1.5 14.746 1.5 14.7474 1.5 14.7488C1.5 14.7502 1.5 14.7515 1.5 14.7529C1.5 14.7543 1.5 14.7556 1.5 14.757C1.5 14.7584 1.5 14.7598 1.5 14.7611C1.5 14.7625 1.5 14.7639 1.5 14.7652C1.5 14.7666 1.5 14.768 1.5 14.7694C1.5 14.7707 1.5 14.7721 1.5 14.7735C1.5 14.7749 1.5 14.7762 1.5 14.7776C1.5 14.779 1.5 14.7804 1.5 14.7817C1.5 14.7831 1.5 14.7845 1.5 14.7859C1.5 14.7872 1.5 14.7886 1.5 14.79C1.5 14.7914 1.5 14.7927 1.5 14.7941C1.5 14.7955 1.5 14.7969 1.5 14.7982C1.5 14.7996 1.5 14.801 1.5 14.8024C1.5 14.8038 1.5 14.8051 1.5 14.8065C1.5 14.8079 1.5 14.8093 1.5 14.8107C1.5 14.812 1.5 14.8134 1.5 14.8148C1.5 14.8162 1.5 14.8175 1.5 14.8189C1.5 14.8203 1.5 14.8217 1.5 14.8231C1.5 14.8245 1.5 14.8258 1.5 14.8272C1.5 14.8286 1.5 14.83 1.5 14.8314C1.5 14.8327 1.5 14.8341 1.5 14.8355C1.5 14.8369 1.5 14.8383 1.5 14.8397C1.5 14.841 1.5 14.8424 1.5 14.8438C1.5 14.8452 1.5 14.8466 1.5 14.848C1.5 14.8493 1.5 14.8507 1.5 14.8521C1.5 14.8535 1.5 14.8549 1.5 14.8563C1.5 14.8576 1.5 14.859 1.5 14.8604C1.5 14.8618 1.5 14.8632 1.5 14.8646C1.5 14.866 1.5 14.8673 1.5 14.8687C1.5 14.8701 1.5 14.8715 1.5 14.8729C1.5 14.8743 1.5 14.8757 1.5 14.8771C1.5 14.8784 1.5 14.8798 1.5 14.8812C1.5 14.8826 1.5 14.884 1.5 14.8854C1.5 14.8868 1.5 14.8882 1.5 14.8895C1.5 14.8909 1.5 14.8923 1.5 14.8937C1.5 14.8951 1.5 14.8965 1.5 14.8979C1.5 14.8993 1.5 14.9007 1.5 14.9021C1.5 14.9034 1.5 14.9048 1.5 14.9062C1.5 14.9076 1.5 14.909 1.5 14.9104C1.5 14.9118 1.5 14.9132 1.5 14.9146C1.5 14.916 1.5 14.9174 1.5 14.9188C1.5 14.9202 1.5 14.9215 1.5 14.9229C1.5 14.9243 1.5 14.9257 1.5 14.9271C1.5 14.9285 1.5 14.9299 1.5 14.9313C1.5 14.9327 1.5 14.9341 1.5 14.9355C1.5 14.9369 1.5 14.9383 1.5 14.9397C1.5 14.9411 1.5 14.9425 1.5 14.9439C1.5 14.9453 1.5 14.9467 1.5 14.9481C1.5 14.9494 1.5 14.9508 1.5 14.9522C1.5 14.9536 1.5 14.955 1.5 14.9564C1.5 14.9578 1.5 14.9592 1.5 14.9606C1.5 14.962 1.5 14.9634 1.5 14.9648C1.5 14.9662 1.5 14.9676 1.5 14.969C1.5 14.9704 1.5 14.9718 1.5 14.9732C1.5 14.9746 1.5 14.976 1.5 14.9774C1.5 14.9788 1.5 14.9802 1.5 14.9816C1.5 14.983 1.5 14.9844 1.5 14.9858C1.5 14.9872 1.5 14.9886 1.5 14.99C1.5 14.9914 1.5 14.9928 1.5 14.9942C1.5 14.9956 1.5 14.997 1.5 14.9984C1.5 14.9999 1.5 15.0013 1.5 15.0027C1.5 15.0041 1.5 15.0055 1.5 15.0069C1.5 15.0083 1.5 15.0097 1.5 15.0111C1.5 15.0125 1.5 15.0139 1.5 15.0153C1.5 15.0167 1.5 15.0181 1.5 15.0195C1.5 15.0209 1.5 15.0223 1.5 15.0237C1.5 15.0251 1.5 15.0265 1.5 15.0279C1.5 15.0294 1.5 15.0308 1.5 15.0322C1.5 15.0336 1.5 15.035 1.5 15.0364C1.5 15.0378 1.5 15.0392 1.5 15.0406C1.5 15.042 1.5 15.0434 1.5 15.0448C1.5 15.0463 1.5 15.0477 1.5 15.0491C1.5 15.0505 1.5 15.0519 1.5 15.0533C1.5 15.0547 1.5 15.0561 1.5 15.0575C1.5 15.0589 1.5 15.0603 1.5 15.0618C1.5 15.0632 1.5 15.0646 1.5 15.066C1.5 15.0674 1.5 15.0688 1.5 15.0702C1.5 15.0716 1.5 15.0731 1.5 15.0745C1.5 15.0759 1.5 15.0773 1.5 15.0787C1.5 15.0801 1.5 15.0815 1.5 15.0829C1.5 15.0844 1.5 15.0858 1.5 15.0872C1.5 15.0886 1.5 15.09 1.5 15.0914C1.5 15.0928 1.5 15.0943 1.5 15.0957C1.5 15.0971 1.5 15.0985 1.5 15.0999C1.5 15.1013 1.5 15.1027 1.5 15.1042C1.5 15.1056 1.5 15.107 1.5 15.1084C1.5 15.1098 1.5 15.1112 1.5 15.1127C1.5 15.1141 1.5 15.1155 1.5 15.1169C1.5 15.1183 1.5 15.1197 1.5 15.1212C1.5 15.1226 1.5 15.124 1.5 15.1254C1.5 15.1268 1.5 15.1283 1.5 15.1297C1.5 15.1311 1.5 15.1325 1.5 15.1339C1.5 15.1354 1.5 15.1368 1.5 15.1382C1.5 15.1396 1.5 15.141 1.5 15.1425C1.5 15.1439 1.5 15.1453 1.5 15.1467C1.5 15.1481 1.5 15.1496 1.5 15.151C1.5 15.1524 1.5 15.1538 1.5 15.1552C1.5 15.1567 1.5 15.1581 1.5 15.1595C1.5 15.1609 1.5 15.1624 1.5 15.1638C1.5 15.1652 1.5 15.1666 1.5 15.168C1.5 15.1695 1.5 15.1709 1.5 15.1723C1.5 15.1737 1.5 15.1752 1.5 15.1766C1.5 15.178 1.5 15.1794 1.5 15.1809C1.5 15.1823 1.5 15.1837 1.5 15.1851C1.5 15.1866 1.5 15.188 1.5 15.1894C1.5 15.1908 1.5 15.1923 1.5 15.1937C1.5 15.1951 1.5 15.1966 1.5 15.198C1.5 15.1994 1.5 15.2008 1.5 15.2023C1.5 15.2037 1.5 15.2051 1.5 15.2065C1.5 15.208 1.5 15.2094 1.5 15.2108C1.5 15.2123 1.5 15.2137 1.5 15.2151C1.5 15.2165 1.5 15.218 1.5 15.2194C1.5 15.2208 1.5 15.2223 1.5 15.2237C1.5 15.2251 1.5 15.2266 1.5 15.228C1.5 15.2294 1.5 15.2308 1.5 15.2323C1.5 15.2337 1.5 15.2351 1.5 15.2366C1.5 15.238 1.5 15.2394 1.5 15.2409C1.5 15.2423 1.5 15.2437 1.5 15.2452C1.5 15.2466 1.5 15.248 1.5 15.2495C1.5 15.2509 1.5 15.2523 1.5 15.2538C1.5 15.2552 1.5 15.2566 1.5 15.2581C1.5 15.2595 1.5 15.2609 1.5 15.2624C1.5 15.2638 1.5 15.2652 1.5 15.2667C1.5 15.2681 1.5 15.2695 1.5 15.271C1.5 15.2724 1.5 15.2738 1.5 15.2753C1.5 15.2767 1.5 15.2782 1.5 15.2796C1.5 15.281 1.5 15.2825 1.5 15.2839C1.5 15.2853 1.5 15.2868 1.5 15.2882C1.5 15.2896 1.5 15.2911 1.5 15.2925C1.5 15.294 1.5 15.2954 1.5 15.2968C1.5 15.2983 1.5 15.2997 1.5 15.3012C1.5 15.3026 1.5 15.304 1.5 15.3055C1.5 15.3069 1.5 15.3083 1.5 15.3098C1.5 15.3112 1.5 15.3127 1.5 15.3141C1.5 15.3155 1.5 15.317 1.5 15.3184C1.5 15.3199 1.5 15.3213 1.5 15.3228C1.5 15.3242 1.5 15.3256 1.5 15.3271C1.5 15.3285 1.5 15.33 1.5 15.3314C1.5 15.3328 1.5 15.3343 1.5 15.3357C1.5 15.3372 1.5 15.3386 1.5 15.3401C1.5 15.3415 1.5 15.3429 1.5 15.3444C1.5 15.3458 1.5 15.3473 1.5 15.3487C1.5 15.3502 1.5 15.3516 1.5 15.3531C1.5 15.3545 1.5 15.3559 1.5 15.3574C1.5 15.3588 1.5 15.3603 1.5 15.3617C1.5 15.3632 1.5 15.3646 1.5 15.3661C1.5 15.3675 1.5 15.369 1.5 15.3704C1.5 15.3719 1.5 15.3733 1.5 15.3747C1.5 15.3762 1.5 15.3776 1.5 15.3791C1.5 15.3805 1.5 15.382 1.5 15.3834C1.5 15.3849 1.5 15.3863 1.5 15.3878C1.5 15.3892 1.5 15.3907 1.5 15.3921C1.5 15.3936 1.5 15.395 1.5 15.3965C1.5 15.3979 1.5 15.3994 1.5 15.4008C1.5 15.4023 1.5 15.4037 1.5 15.4052C1.5 15.4066 1.5 15.4081 1.5 15.4095C1.5 15.411 1.5 15.4124 1.5 15.4139C1.5 15.4153 1.5 15.4168 1.5 15.4182C1.5 15.4197 1.5 15.4211 1.5 15.4226C1.5 15.424 1.5 15.4255 1.5 15.4269C1.5 15.4284 1.5 15.4298 1.5 15.4313C1.5 15.4328 1.5 15.4342 1.5 15.4357C1.5 15.4371 1.5 15.4386 1.5 15.44C1.5 15.4415 1.5 15.4429 1.5 15.4444C1.5 15.4458 1.5 15.4473 1.5 15.4488C1.5 15.4502 1.5 15.4517 1.5 15.4531C1.5 15.4546 1.5 15.456 1.5 15.4575C1.5 15.4589 1.5 15.4604 1.5 15.4619C1.5 15.4633 1.5 15.4648 1.5 15.4662C1.5 15.4677 1.5 15.4691 1.5 15.4706C1.5 15.4721 1.5 15.4735 1.5 15.475C1.5 15.4764 1.5 15.4779 1.5 15.4793C1.5 15.4808 1.5 15.4823 1.5 15.4837C1.5 15.4852 1.5 15.4866 1.5 15.4881C1.5 15.4896 1.5 15.491 1.5 15.4925C1.5 15.4939 1.5 15.4954 1.5 15.4969C1.5 15.4983 1.5 15.4998 1.5 15.5012C1.5 15.5027 1.5 15.5042 1.5 15.5056C1.5 15.5071 1.5 15.5085 1.5 15.51C1.5 15.5115 1.5 15.5129 1.5 15.5144C1.5 15.5159 1.5 15.5173 1.5 15.5188C1.5 15.5202 1.5 15.5217 1.5 15.5232C1.5 15.5246 1.5 15.5261 1.5 15.5276C1.5 15.529 1.5 15.5305 1.5 15.5319C1.5 15.5334 1.5 15.5349 1.5 15.5363C1.5 15.5378 1.5 15.5393 1.5 15.5407C1.5 15.5422 1.5 15.5437 1.5 15.5451C1.5 15.5466 1.5 15.5481 1.5 15.5495C1.5 15.551 1.5 15.5525 1.5 15.5539C1.5 15.5554 1.5 15.5569 1.5 15.5583C1.5 15.5598 1.5 15.5613 1.5 15.5627C1.5 15.5642 1.5 15.5657 1.5 15.5671C1.5 15.5686 1.5 15.5701 1.5 15.5715C1.5 15.573 1.5 15.5745 1.5 15.5759C1.5 15.5774 1.5 15.5789 1.5 15.5803C1.5 15.5818 1.5 15.5833 1.5 15.5848C1.5 15.5862 1.5 15.5877 1.5 15.5892C1.5 15.5906 1.5 15.5921 1.5 15.5936C1.5 15.595 1.5 15.5965 1.5 15.598C1.5 15.5995 1.5 15.6009 1.5 15.6024C1.5 15.6039 1.5 15.6053 1.5 15.6068C1.5 15.6083 1.5 15.6098 1.5 15.6112C1.5 15.6127 1.5 15.6142 1.5 15.6156C1.5 15.6171 1.5 15.6186 1.5 15.6201C1.5 15.6215 1.5 15.623 1.5 15.6245C1.5 15.626 1.5 15.6274 1.5 15.6289C1.5 15.6304 1.5 15.6319 1.5 15.6333C1.5 15.6348 1.5 15.6363 1.5 15.6377C1.5 15.6392 1.5 15.6407 1.5 15.6422C1.5 15.6437 1.5 15.6451 1.5 15.6466C1.5 15.6481 1.5 15.6496 1.5 15.651C1.5 15.6525 1.5 15.654 1.5 15.6555C1.5 15.6569 1.5 15.6584 1.5 15.6599C1.5 15.6614 1.5 15.6628 1.5 15.6643C1.5 15.6658 1.5 15.6673 1.5 15.6688C1.5 15.6702 1.5 15.6717 1.5 15.6732C1.5 15.6747 1.5 15.6761 1.5 15.6776C1.5 15.6791 1.5 15.6806 1.5 15.6821C1.5 15.6835 1.5 15.685 1.5 15.6865C1.5 15.688 1.5 15.6895 1.5 15.6909C1.5 15.6924 1.5 15.6939 1.5 15.6954C1.5 15.6969 1.5 15.6983 1.5 15.6998C1.5 15.7013 1.5 15.7028 1.5 15.7043C1.5 15.7058 1.5 15.7072 1.5 15.7087C1.5 15.7102 1.5 15.7117 1.5 15.7132C1.5 15.7146 1.5 15.7161 1.5 15.7176C1.5 15.7191 1.5 15.7206 1.5 15.7221C1.5 15.7235 1.5 15.725 1.5 15.7265C1.5 15.728 1.5 15.7295 1.5 15.731C1.5 15.7324 1.5 15.7339 1.5 15.7354C1.5 15.7369 1.5 15.7384 1.5 15.7399C1.5 15.7414 1.5 15.7428 1.5 15.7443C1.5 15.7458 1.5 15.7473 1.5 15.7488C1.5 15.7503 1.5 15.7518 1.5 15.7532C1.5 15.7547 1.5 15.7562 1.5 15.7577C1.5 15.7592 1.5 15.7607 1.5 15.7622C1.5 15.7637 1.5 15.7651 1.5 15.7666C1.5 15.7681 1.5 15.7696 1.5 15.7711C1.5 15.7726 1.5 15.7741 1.5 15.7756C1.5 15.777 1.5 15.7785 1.5 15.78C1.5 15.7815 1.5 15.783 1.5 15.7845C1.5 15.786 1.5 15.7875 1.5 15.789C1.5 15.7904 1.5 15.7919 1.5 15.7934C1.5 15.7949 1.5 15.7964 1.5 15.7979C1.5 15.7994 1.5 15.8009 1.5 15.8024C1.5 15.8039 1.5 15.8054 1.5 15.8068C1.5 15.8083 1.5 15.8098 1.5 15.8113C1.5 15.8128 1.5 15.8143 1.5 15.8158C1.5 15.8173 1.5 15.8188 1.5 15.8203C1.5 15.8218 1.5 15.8233 1.5 15.8248C1.5 15.8263 1.5 15.8277 1.5 15.8292C1.5 15.8307 1.5 15.8322 1.5 15.8337C1.5 15.8352 1.5 15.8367 1.5 15.8382C1.5 15.8397 1.5 15.8412 1.5 15.8427C1.5 15.8442 1.5 15.8457 1.5 15.8472C1.5 15.8487 1.5 15.8502 1.5 15.8517C1.5 15.8532 1.5 15.8547 1.5 15.8561C1.5 15.8576 1.5 15.8591 1.5 15.8606C1.5 15.8621 1.5 15.8636 1.5 15.8651C1.5 15.8666 1.5 15.8681 1.5 15.8696C1.5 15.8711 1.5 15.8726 1.5 15.8741C1.5 15.8756 1.5 15.8771 1.5 15.8786C1.5 15.8801 1.5 15.8816 1.5 15.8831C1.5 15.8846 1.5 15.8861 1.5 15.8876C1.5 15.8891 1.5 15.8906 1.5 15.8921C1.5 15.8936 1.5 15.8951 1.5 15.8966C1.5 15.8981 1.5 15.8996 1.5 15.9011C1.5 15.9026 1.5 15.9041 1.5 15.9056C1.5 15.9071 1.5 15.9086 1.5 15.9101C1.5 15.9116 1.5 15.9131 1.5 15.9146C1.5 15.9161 1.5 15.9176 1.5 15.9191C1.5 15.9206 1.5 15.9221 1.5 15.9236C1.5 15.9251 1.5 15.9266 1.5 15.9281C1.5 15.9296 1.5 15.9311 1.5 15.9326C1.5 15.9341 1.5 15.9356 1.5 15.9372C1.5 15.9387 1.5 15.9402 1.5 15.9417C1.5 15.9432 1.5 15.9447 1.5 15.9462C1.5 15.9477 1.5 15.9492 1.5 15.9507C1.5 15.9522 1.5 15.9537 1.5 15.9552C1.5 15.9567 1.5 15.9582 1.5 15.9597C1.5 15.9612 1.5 15.9627 1.5 15.9642C1.5 15.9658 1.5 15.9673 1.5 15.9688C1.5 15.9703 1.5 15.9718 1.5 15.9733C1.5 15.9748 1.5 15.9763 1.5 15.9778C1.5 15.9793 1.5 15.9808 1.5 15.9823C1.5 15.9838 1.5 15.9853 1.5 15.9869C1.5 15.9884 1.5 15.9899 1.5 15.9914C1.5 15.9929 1.5 15.9944 1.5 15.9959C1.5 15.9974 1.5 15.9989 1.5 16.0004C1.5 16.0019 1.5 16.0035 1.5 16.005C1.5 16.0065 1.5 16.008 1.5 16.0095C1.5 16.011 1.5 16.0125 1.5 16.014C1.5 16.0155 1.5 16.0171 1.5 16.0186C1.5 16.0201 1.5 16.0216 1.5 16.0231C1.5 16.0246 1.5 16.0261 1.5 16.0276C1.5 16.0291 1.5 16.0307 1.5 16.0322C1.5 16.0337 1.5 16.0352 1.5 16.0367C1.5 16.0382 1.5 16.0397 1.5 16.0412C1.5 16.0428 1.5 16.0443 1.5 16.0458C1.5 16.0473 1.5 16.0488 1.5 16.0503C1.5 16.0518 1.5 16.0534 1.5 16.0549C1.5 16.0564 1.5 16.0579 1.5 16.0594C1.5 16.0609 1.5 16.0624 1.5 16.064C1.5 16.0655 1.5 16.067 1.5 16.0685C1.5 16.07 1.5 16.0715 1.5 16.0731C1.5 16.0746 1.5 16.0761 1.5 16.0776C1.5 16.0791 1.5 16.0806 1.5 16.0822C1.5 16.0837 1.5 16.0852 1.5 16.0867C1.5 16.0882 1.5 16.0897 1.5 16.0913C1.5 16.0928 1.5 16.0943 1.5 16.0958C1.5 16.0973 1.5 16.0988 1.5 16.1004C1.5 16.1019 1.5 16.1034 1.5 16.1049C1.5 16.1064 1.5 16.108 1.5 16.1095C1.5 16.111 1.5 16.1125 1.5 16.114C1.5 16.1156 1.5 16.1171 1.5 16.1186C1.5 16.1201 1.5 16.1216 1.5 16.1232C1.5 16.1247 1.5 16.1262 1.5 16.1277C1.5 16.1292 1.5 16.1308 1.5 16.1323C1.5 16.1338 1.5 16.1353 1.5 16.1368C1.5 16.1384 1.5 16.1399 1.5 16.1414C1.5 16.1429 1.5 16.1445 1.5 16.146C1.5 16.1475 1.5 16.149 1.5 16.1505C1.5 16.1521 1.5 16.1536 1.5 16.1551C1.5 16.1566 1.5 16.1582 1.5 16.1597C1.5 16.1612 1.5 16.1627 1.5 16.1643C1.5 16.1658 1.5 16.1673 1.5 16.1688C1.5 16.1704 1.5 16.1719 1.5 16.1734C1.5 16.1749 1.5 16.1765 1.5 16.178C1.5 16.1795 1.5 16.181 1.5 16.1826C1.5 16.1841 1.5 16.1856 1.5 16.1871C1.5 16.1887 1.5 16.1902 1.5 16.1917C1.5 16.1932 1.5 16.1948 1.5 16.1963C1.5 16.1978 1.5 16.1993 1.5 16.2009C1.5 16.2024 1.5 16.2039 1.5 16.2055C1.5 16.207 1.5 16.2085 1.5 16.21C1.5 16.2116 1.5 16.2131 1.5 16.2146C1.5 16.2162 1.5 16.2177 1.5 16.2192C1.5 16.2207 1.5 16.2223 1.5 16.2238C1.5 16.2253 1.5 16.2269 1.5 16.2284C1.5 16.2299 1.5 16.2314 1.5 16.233C1.5 16.2345 1.5 16.236 1.5 16.2376C1.5 16.2391 1.5 16.2406 1.5 16.2422C1.5 16.2437 1.5 16.2452 1.5 16.2467C1.5 16.2483 1.5 16.2498 1.5 16.2513C1.5 16.2529 1.5 16.2544 1.5 16.2559C1.5 16.2575 1.5 16.259 1.5 16.2605C1.5 16.2621 1.5 16.2636 1.5 16.2651C1.5 16.2667 1.5 16.2682 1.5 16.2697C1.5 16.2713 1.5 16.2728 1.5 16.2743C1.5 16.2759 1.5 16.2774 1.5 16.2789C1.5 16.2805 1.5 16.282 1.5 16.2835C1.5 16.2851 1.5 16.2866 1.5 16.2881C1.5 16.2897 1.5 16.2912 1.5 16.2927C1.5 16.2943 1.5 16.2958 1.5 16.2973C1.5 16.2989 1.5 16.3004 1.5 16.3019C1.5 16.3035 1.5 16.305 1.5 16.3065C1.5 16.3081 1.5 16.3096 1.5 16.3112C1.5 16.3127 1.5 16.3142 1.5 16.3158C1.5 16.3173 1.5 16.3188 1.5 16.3204C1.5 16.3219 1.5 16.3235 1.5 16.325C1.5 16.3265 1.5 16.3281 1.5 16.3296C1.5 16.3311 1.5 16.3327 1.5 16.3342C1.5 16.3358 1.5 16.3373 1.5 16.3388C1.5 16.3404 1.5 16.3419 1.5 16.3434C1.5 16.345 1.5 16.3465 1.5 16.3481C1.5 16.3496 1.5 16.3511 1.5 16.3527C1.5 16.3542 1.5 16.3558 1.5 16.3573C1.5 16.3588 1.5 16.3604 1.5 16.3619C1.5 16.3635 1.5 16.365 1.5 16.3665C1.5 16.3681 1.5 16.3696 1.5 16.3712C1.5 16.3727 1.5 16.3742 1.5 16.3758C1.5 16.3773 1.5 16.3789 1.5 16.3804C1.5 16.382 1.5 16.3835 1.5 16.385C1.5 16.3866 1.5 16.3881 1.5 16.3897C1.5 16.3912 1.5 16.3928 1.5 16.3943C1.5 16.3958 1.5 16.3974 1.5 16.3989C1.5 16.4005 1.5 16.402 1.5 16.4036C1.5 16.4051 1.5 16.4066 1.5 16.4082C1.5 16.4097 1.5 16.4113 1.5 16.4128C1.5 16.4144 1.5 16.4159 1.5 16.4175C1.5 16.419 1.5 16.4205 1.5 16.4221C1.5 16.4236 1.5 16.4252 1.5 16.4267C1.5 16.4283 1.5 16.4298 1.5 16.4314C1.5 16.4329 1.5 16.4345 1.5 16.436C1.5 16.4375 1.5 16.4391 1.5 16.4406C1.5 16.4422 1.5 16.4437 1.5 16.4453C1.5 16.4468 1.5 16.4484 1.5 16.4499C1.5 16.4515 1.5 16.453 1.5 16.4546C1.5 16.4561 1.5 16.4577 1.5 16.4592C1.5 16.4608 1.5 16.4623 1.5 16.4638C1.5 16.4654 1.5 16.4669 1.5 16.4685C1.5 16.47 1.5 16.4716 1.5 16.4731C1.5 16.4747 1.5 16.4762 1.5 16.4778C1.5 16.4793 1.5 16.4809 1.5 16.4824C1.5 16.484 1.5 16.4855 1.5 16.4871C1.5 16.4886 1.5 16.4902 1.5 16.4917C1.5 16.4933 1.5 16.4948 1.5 16.4964C1.5 16.4979 1.5 16.4995 1.5 16.501C1.5 16.5026 1.5 16.5041 1.5 16.5057C1.5 16.5072 1.5 16.5088 1.5 16.5104C1.5 16.5119 1.5 16.5135 1.5 16.515C1.5 16.5166 1.5 16.5181 1.5 16.5197C1.5 16.5212 1.5 16.5228 1.5 16.5243C1.5 16.5259 1.5 16.5274 1.5 16.529C1.5 16.5305 1.5 16.5321 1.5 16.5336C1.5 16.5352 1.5 16.5368 1.5 16.5383C1.5 16.5399 1.5 16.5414 1.5 16.543C1.5 16.5445 1.5 16.5461 1.5 16.5476C1.5 16.5492 1.5 16.5507 1.5 16.5523C1.5 16.5539 1.5 16.5554 1.5 16.557C1.5 16.5585 1.5 16.5601 1.5 16.5616C1.5 16.5632 1.5 16.5647 1.5 16.5663C1.5 16.5679 1.5 16.5694 1.5 16.571C1.5 16.5725 1.5 16.5741 1.5 16.5756C1.5 16.5772 1.5 16.5788 1.5 16.5803C1.5 16.5819 1.5 16.5834 1.5 16.585C1.5 16.5865 1.5 16.5881 1.5 16.5897C1.5 16.5912 1.5 16.5928 1.5 16.5943C1.5 16.5959 1.5 16.5974 1.5 16.599C1.5 16.6006 1.5 16.6021 1.5 16.6037C1.5 16.6052 1.5 16.6068 1.5 16.6084C1.5 16.6099 1.5 16.6115 1.5 16.613C1.5 16.6146 1.5 16.6162 1.5 16.6177C1.5 16.6193 1.5 16.6208 1.5 16.6224C1.5 16.624 1.5 16.6255 1.5 16.6271C1.5 16.6286 1.5 16.6302 1.5 16.6318C1.5 16.6333 1.5 16.6349 1.5 16.6364C1.5 16.638 1.5 16.6396 1.5 16.6411C1.5 16.6427 1.5 16.6442 1.5 16.6458C1.5 16.6474 1.5 16.6489 1.5 16.6505C1.5 16.6521 1.5 16.6536 1.5 16.6552C1.5 16.6567 1.5 16.6583 1.5 16.6599C1.5 16.6614 1.5 16.663 1.5 16.6646C1.5 16.6661 1.5 16.6677 1.5 16.6693C1.5 16.6708 1.5 16.6724 1.5 16.6739C1.5 16.6755 1.5 16.6771 1.5 16.6786C1.5 16.6802 1.5 16.6818 1.5 16.6833C1.5 16.6849 1.5 16.6865 1.5 16.688C1.5 16.6896 1.5 16.6912 1.5 16.6927C1.5 16.6943 1.5 16.6958 1.5 16.6974C1.5 16.699 1.5 16.7005 1.5 16.7021C1.5 16.7037 1.5 16.7052 1.5 16.7068C1.5 16.7084 1.5 16.7099 1.5 16.7115C1.5 16.7131 1.5 16.7146 1.5 16.7162C1.5 16.7178 1.5 16.7193 1.5 16.7209C1.5 16.7225 1.5 16.724 1.5 16.7256C1.5 16.7272 1.5 16.7287 1.5 16.7303C1.5 16.7319 1.5 16.7335 1.5 16.735C1.5 16.7366 1.5 16.7382 1.5 16.7397C1.5 16.7413 1.5 16.7429 1.5 16.7444C1.5 16.746 1.5 16.7476 1.5 16.7491C1.5 16.7507 1.5 16.7523 1.5 16.7538C1.5 16.7554 1.5 16.757 1.5 16.7586C1.5 16.7601 1.5 16.7617 1.5 16.7633C1.5 16.7648 1.5 16.7664 1.5 16.768C1.5 16.7696 1.5 16.7711 1.5 16.7727C1.5 16.7743 1.5 16.7758 1.5 16.7774C1.5 16.779 1.5 16.7805 1.5 16.7821C1.5 16.7837 1.5 16.7853 1.5 16.7868C1.5 16.7884 1.5 16.79 1.5 16.7916C1.5 16.7931 1.5 16.7947 1.5 16.7963C1.5 16.7978 1.5 16.7994 1.5 16.801C1.5 16.8026 1.5 16.8041 1.5 16.8057C1.5 16.8073 1.5 16.8089 1.5 16.8104C1.5 16.812 1.5 16.8136 1.5 16.8151C1.5 16.8167 1.5 16.8183 1.5 16.8199C1.5 16.8214 1.5 16.823 1.5 16.8246C1.5 16.8262 1.5 16.8277 1.5 16.8293C1.5 16.8309 1.5 16.8325 1.5 16.834C1.5 16.8356 1.5 16.8372 1.5 16.8388C1.5 16.8403 1.5 16.8419 1.5 16.8435C1.5 16.8451 1.5 16.8466 1.5 16.8482C1.5 16.8498 1.5 16.8514 1.5 16.8529C1.5 16.8545 1.5 16.8561 1.5 16.8577C1.5 16.8593 1.5 16.8608 1.5 16.8624C1.5 16.864 1.5 16.8656 1.5 16.8671C1.5 16.8687 1.5 16.8703 1.5 16.8719C1.5 16.8734 1.5 16.875 1.5 16.8766C1.5 16.8782 1.5 16.8798 1.5 16.8813C1.5 16.8829 1.5 16.8845 1.5 16.8861C1.5 16.8877 1.5 16.8892 1.5 16.8908C1.5 16.8924 1.5 16.894 1.5 16.8955C1.5 16.8971 1.5 16.8987 1.5 16.9003C1.5 16.9019 1.5 16.9034 1.5 16.905C1.5 16.9066 1.5 16.9082 1.5 16.9098C1.5 16.9113 1.5 16.9129 1.5 16.9145C1.5 16.9161 1.5 16.9177 1.5 16.9192C1.5 16.9208 1.5 16.9224 1.5 16.924C1.5 16.9256 1.5 16.9272 1.5 16.9287C1.5 16.9303 1.5 16.9319 1.5 16.9335C1.5 16.9351 1.5 16.9366 1.5 16.9382C1.5 16.9398 1.5 16.9414 1.5 16.943C1.5 16.9446 1.5 16.9461 1.5 16.9477C1.5 16.9493 1.5 16.9509 1.5 16.9525C1.5 16.954 1.5 16.9556 1.5 16.9572C1.5 16.9588 1.5 16.9604 1.5 16.962C1.5 16.9635 1.5 16.9651 1.5 16.9667C1.5 16.9683 1.5 16.9699 1.5 16.9715C1.5 16.9731 1.5 16.9746 1.5 16.9762C1.5 16.9778 1.5 16.9794 1.5 16.981C1.5 16.9826 1.5 16.9841 1.5 16.9857C1.5 16.9873 1.5 16.9889 1.5 16.9905C1.5 16.9921 1.5 16.9937 1.5 16.9952C1.5 16.9968 1.5 16.9984 1.5 17H2.5ZM5.4308 11.7857H10.0052V10.7857H5.4308V11.7857ZM12.936 14.7159C12.936 14.7173 12.936 14.7187 12.936 14.72C12.936 14.7214 12.936 14.7228 12.936 14.7241C12.936 14.7255 12.936 14.7269 12.936 14.7282C12.936 14.7296 12.936 14.731 12.936 14.7323C12.936 14.7337 12.936 14.7351 12.936 14.7365C12.936 14.7378 12.936 14.7392 12.936 14.7406C12.936 14.7419 12.936 14.7433 12.936 14.7447C12.936 14.746 12.936 14.7474 12.936 14.7488C12.936 14.7502 12.936 14.7515 12.936 14.7529C12.936 14.7543 12.936 14.7556 12.936 14.757C12.936 14.7584 12.936 14.7598 12.936 14.7611C12.936 14.7625 12.936 14.7639 12.936 14.7652C12.936 14.7666 12.936 14.768 12.936 14.7694C12.936 14.7707 12.936 14.7721 12.936 14.7735C12.936 14.7749 12.936 14.7762 12.936 14.7776C12.936 14.779 12.936 14.7804 12.936 14.7817C12.936 14.7831 12.936 14.7845 12.936 14.7859C12.936 14.7872 12.936 14.7886 12.936 14.79C12.936 14.7914 12.936 14.7927 12.936 14.7941C12.936 14.7955 12.936 14.7969 12.936 14.7982C12.936 14.7996 12.936 14.801 12.936 14.8024C12.936 14.8038 12.936 14.8051 12.936 14.8065C12.936 14.8079 12.936 14.8093 12.936 14.8107C12.936 14.812 12.936 14.8134 12.936 14.8148C12.936 14.8162 12.936 14.8175 12.936 14.8189C12.936 14.8203 12.936 14.8217 12.936 14.8231C12.936 14.8245 12.936 14.8258 12.936 14.8272C12.936 14.8286 12.936 14.83 12.936 14.8314C12.936 14.8327 12.936 14.8341 12.936 14.8355C12.936 14.8369 12.936 14.8383 12.936 14.8397C12.936 14.841 12.936 14.8424 12.936 14.8438C12.936 14.8452 12.936 14.8466 12.936 14.848C12.936 14.8493 12.936 14.8507 12.936 14.8521C12.936 14.8535 12.936 14.8549 12.936 14.8563C12.936 14.8576 12.936 14.859 12.936 14.8604C12.936 14.8618 12.936 14.8632 12.936 14.8646C12.936 14.866 12.936 14.8673 12.936 14.8687C12.936 14.8701 12.936 14.8715 12.936 14.8729C12.936 14.8743 12.936 14.8757 12.936 14.8771C12.936 14.8784 12.936 14.8798 12.936 14.8812C12.936 14.8826 12.936 14.884 12.936 14.8854C12.936 14.8868 12.936 14.8882 12.936 14.8895C12.936 14.8909 12.936 14.8923 12.936 14.8937C12.936 14.8951 12.936 14.8965 12.936 14.8979C12.936 14.8993 12.936 14.9007 12.936 14.9021C12.936 14.9034 12.936 14.9048 12.936 14.9062C12.936 14.9076 12.936 14.909 12.936 14.9104C12.936 14.9118 12.936 14.9132 12.936 14.9146C12.936 14.916 12.936 14.9174 12.936 14.9188C12.936 14.9202 12.936 14.9215 12.936 14.9229C12.936 14.9243 12.936 14.9257 12.936 14.9271C12.936 14.9285 12.936 14.9299 12.936 14.9313C12.936 14.9327 12.936 14.9341 12.936 14.9355C12.936 14.9369 12.936 14.9383 12.936 14.9397C12.936 14.9411 12.936 14.9425 12.936 14.9439C12.936 14.9453 12.936 14.9467 12.936 14.9481C12.936 14.9494 12.936 14.9508 12.936 14.9522C12.936 14.9536 12.936 14.955 12.936 14.9564C12.936 14.9578 12.936 14.9592 12.936 14.9606C12.936 14.962 12.936 14.9634 12.936 14.9648C12.936 14.9662 12.936 14.9676 12.936 14.969C12.936 14.9704 12.936 14.9718 12.936 14.9732C12.936 14.9746 12.936 14.976 12.936 14.9774C12.936 14.9788 12.936 14.9802 12.936 14.9816C12.936 14.983 12.936 14.9844 12.936 14.9858C12.936 14.9872 12.936 14.9886 12.936 14.99C12.936 14.9914 12.936 14.9928 12.936 14.9942C12.936 14.9956 12.936 14.997 12.936 14.9984C12.936 14.9999 12.936 15.0013 12.936 15.0027C12.936 15.0041 12.936 15.0055 12.936 15.0069C12.936 15.0083 12.936 15.0097 12.936 15.0111C12.936 15.0125 12.936 15.0139 12.936 15.0153C12.936 15.0167 12.936 15.0181 12.936 15.0195C12.936 15.0209 12.936 15.0223 12.936 15.0237C12.936 15.0251 12.936 15.0265 12.936 15.0279C12.936 15.0294 12.936 15.0308 12.936 15.0322C12.936 15.0336 12.936 15.035 12.936 15.0364C12.936 15.0378 12.936 15.0392 12.936 15.0406C12.936 15.042 12.936 15.0434 12.936 15.0448C12.936 15.0463 12.936 15.0477 12.936 15.0491C12.936 15.0505 12.936 15.0519 12.936 15.0533C12.936 15.0547 12.936 15.0561 12.936 15.0575C12.936 15.0589 12.936 15.0603 12.936 15.0618C12.936 15.0632 12.936 15.0646 12.936 15.066C12.936 15.0674 12.936 15.0688 12.936 15.0702C12.936 15.0716 12.936 15.0731 12.936 15.0745C12.936 15.0759 12.936 15.0773 12.936 15.0787C12.936 15.0801 12.936 15.0815 12.936 15.0829C12.936 15.0844 12.936 15.0858 12.936 15.0872C12.936 15.0886 12.936 15.09 12.936 15.0914C12.936 15.0928 12.936 15.0943 12.936 15.0957C12.936 15.0971 12.936 15.0985 12.936 15.0999C12.936 15.1013 12.936 15.1027 12.936 15.1042C12.936 15.1056 12.936 15.107 12.936 15.1084C12.936 15.1098 12.936 15.1112 12.936 15.1127C12.936 15.1141 12.936 15.1155 12.936 15.1169C12.936 15.1183 12.936 15.1197 12.936 15.1212C12.936 15.1226 12.936 15.124 12.936 15.1254C12.936 15.1268 12.936 15.1283 12.936 15.1297C12.936 15.1311 12.936 15.1325 12.936 15.1339C12.936 15.1354 12.936 15.1368 12.936 15.1382C12.936 15.1396 12.936 15.141 12.936 15.1425C12.936 15.1439 12.936 15.1453 12.936 15.1467C12.936 15.1481 12.936 15.1496 12.936 15.151C12.936 15.1524 12.936 15.1538 12.936 15.1552C12.936 15.1567 12.936 15.1581 12.936 15.1595C12.936 15.1609 12.936 15.1624 12.936 15.1638C12.936 15.1652 12.936 15.1666 12.936 15.168C12.936 15.1695 12.936 15.1709 12.936 15.1723C12.936 15.1737 12.936 15.1752 12.936 15.1766C12.936 15.178 12.936 15.1794 12.936 15.1809C12.936 15.1823 12.936 15.1837 12.936 15.1851C12.936 15.1866 12.936 15.188 12.936 15.1894C12.936 15.1908 12.936 15.1923 12.936 15.1937C12.936 15.1951 12.936 15.1966 12.936 15.198C12.936 15.1994 12.936 15.2008 12.936 15.2023C12.936 15.2037 12.936 15.2051 12.936 15.2065C12.936 15.208 12.936 15.2094 12.936 15.2108C12.936 15.2123 12.936 15.2137 12.936 15.2151C12.936 15.2165 12.936 15.218 12.936 15.2194C12.936 15.2208 12.936 15.2223 12.936 15.2237C12.936 15.2251 12.936 15.2266 12.936 15.228C12.936 15.2294 12.936 15.2308 12.936 15.2323C12.936 15.2337 12.936 15.2351 12.936 15.2366C12.936 15.238 12.936 15.2394 12.936 15.2409C12.936 15.2423 12.936 15.2437 12.936 15.2452C12.936 15.2466 12.936 15.248 12.936 15.2495C12.936 15.2509 12.936 15.2523 12.936 15.2538C12.936 15.2552 12.936 15.2566 12.936 15.2581C12.936 15.2595 12.936 15.2609 12.936 15.2624C12.936 15.2638 12.936 15.2652 12.936 15.2667C12.936 15.2681 12.936 15.2695 12.936 15.271C12.936 15.2724 12.936 15.2738 12.936 15.2753C12.936 15.2767 12.936 15.2782 12.936 15.2796C12.936 15.281 12.936 15.2825 12.936 15.2839C12.936 15.2853 12.936 15.2868 12.936 15.2882C12.936 15.2896 12.936 15.2911 12.936 15.2925C12.936 15.294 12.936 15.2954 12.936 15.2968C12.936 15.2983 12.936 15.2997 12.936 15.3012C12.936 15.3026 12.936 15.304 12.936 15.3055C12.936 15.3069 12.936 15.3083 12.936 15.3098C12.936 15.3112 12.936 15.3127 12.936 15.3141C12.936 15.3155 12.936 15.317 12.936 15.3184C12.936 15.3199 12.936 15.3213 12.936 15.3228C12.936 15.3242 12.936 15.3256 12.936 15.3271C12.936 15.3285 12.936 15.33 12.936 15.3314C12.936 15.3328 12.936 15.3343 12.936 15.3357C12.936 15.3372 12.936 15.3386 12.936 15.3401C12.936 15.3415 12.936 15.3429 12.936 15.3444C12.936 15.3458 12.936 15.3473 12.936 15.3487C12.936 15.3502 12.936 15.3516 12.936 15.3531C12.936 15.3545 12.936 15.3559 12.936 15.3574C12.936 15.3588 12.936 15.3603 12.936 15.3617C12.936 15.3632 12.936 15.3646 12.936 15.3661C12.936 15.3675 12.936 15.369 12.936 15.3704C12.936 15.3719 12.936 15.3733 12.936 15.3747C12.936 15.3762 12.936 15.3776 12.936 15.3791C12.936 15.3805 12.936 15.382 12.936 15.3834C12.936 15.3849 12.936 15.3863 12.936 15.3878C12.936 15.3892 12.936 15.3907 12.936 15.3921C12.936 15.3936 12.936 15.395 12.936 15.3965C12.936 15.3979 12.936 15.3994 12.936 15.4008C12.936 15.4023 12.936 15.4037 12.936 15.4052C12.936 15.4066 12.936 15.4081 12.936 15.4095C12.936 15.411 12.936 15.4124 12.936 15.4139C12.936 15.4153 12.936 15.4168 12.936 15.4182C12.936 15.4197 12.936 15.4211 12.936 15.4226C12.936 15.424 12.936 15.4255 12.936 15.4269C12.936 15.4284 12.936 15.4298 12.936 15.4313C12.936 15.4328 12.936 15.4342 12.936 15.4357C12.936 15.4371 12.936 15.4386 12.936 15.44C12.936 15.4415 12.936 15.4429 12.936 15.4444C12.936 15.4458 12.936 15.4473 12.936 15.4488C12.936 15.4502 12.936 15.4517 12.936 15.4531C12.936 15.4546 12.936 15.456 12.936 15.4575C12.936 15.4589 12.936 15.4604 12.936 15.4619C12.936 15.4633 12.936 15.4648 12.936 15.4662C12.936 15.4677 12.936 15.4691 12.936 15.4706C12.936 15.4721 12.936 15.4735 12.936 15.475C12.936 15.4764 12.936 15.4779 12.936 15.4793C12.936 15.4808 12.936 15.4823 12.936 15.4837C12.936 15.4852 12.936 15.4866 12.936 15.4881C12.936 15.4896 12.936 15.491 12.936 15.4925C12.936 15.4939 12.936 15.4954 12.936 15.4969C12.936 15.4983 12.936 15.4998 12.936 15.5012C12.936 15.5027 12.936 15.5042 12.936 15.5056C12.936 15.5071 12.936 15.5085 12.936 15.51C12.936 15.5115 12.936 15.5129 12.936 15.5144C12.936 15.5159 12.936 15.5173 12.936 15.5188C12.936 15.5202 12.936 15.5217 12.936 15.5232C12.936 15.5246 12.936 15.5261 12.936 15.5276C12.936 15.529 12.936 15.5305 12.936 15.5319C12.936 15.5334 12.936 15.5349 12.936 15.5363C12.936 15.5378 12.936 15.5393 12.936 15.5407C12.936 15.5422 12.936 15.5437 12.936 15.5451C12.936 15.5466 12.936 15.5481 12.936 15.5495C12.936 15.551 12.936 15.5525 12.936 15.5539C12.936 15.5554 12.936 15.5569 12.936 15.5583C12.936 15.5598 12.936 15.5613 12.936 15.5627C12.936 15.5642 12.936 15.5657 12.936 15.5671C12.936 15.5686 12.936 15.5701 12.936 15.5715C12.936 15.573 12.936 15.5745 12.936 15.5759C12.936 15.5774 12.936 15.5789 12.936 15.5803C12.936 15.5818 12.936 15.5833 12.936 15.5848C12.936 15.5862 12.936 15.5877 12.936 15.5892C12.936 15.5906 12.936 15.5921 12.936 15.5936C12.936 15.595 12.936 15.5965 12.936 15.598C12.936 15.5995 12.936 15.6009 12.936 15.6024C12.936 15.6039 12.936 15.6053 12.936 15.6068C12.936 15.6083 12.936 15.6098 12.936 15.6112C12.936 15.6127 12.936 15.6142 12.936 15.6156C12.936 15.6171 12.936 15.6186 12.936 15.6201C12.936 15.6215 12.936 15.623 12.936 15.6245C12.936 15.626 12.936 15.6274 12.936 15.6289C12.936 15.6304 12.936 15.6319 12.936 15.6333C12.936 15.6348 12.936 15.6363 12.936 15.6377C12.936 15.6392 12.936 15.6407 12.936 15.6422C12.936 15.6437 12.936 15.6451 12.936 15.6466C12.936 15.6481 12.936 15.6496 12.936 15.651C12.936 15.6525 12.936 15.654 12.936 15.6555C12.936 15.6569 12.936 15.6584 12.936 15.6599C12.936 15.6614 12.936 15.6628 12.936 15.6643C12.936 15.6658 12.936 15.6673 12.936 15.6688C12.936 15.6702 12.936 15.6717 12.936 15.6732C12.936 15.6747 12.936 15.6761 12.936 15.6776C12.936 15.6791 12.936 15.6806 12.936 15.6821C12.936 15.6835 12.936 15.685 12.936 15.6865C12.936 15.688 12.936 15.6895 12.936 15.6909C12.936 15.6924 12.936 15.6939 12.936 15.6954C12.936 15.6969 12.936 15.6983 12.936 15.6998C12.936 15.7013 12.936 15.7028 12.936 15.7043C12.936 15.7058 12.936 15.7072 12.936 15.7087C12.936 15.7102 12.936 15.7117 12.936 15.7132C12.936 15.7146 12.936 15.7161 12.936 15.7176C12.936 15.7191 12.936 15.7206 12.936 15.7221C12.936 15.7235 12.936 15.725 12.936 15.7265C12.936 15.728 12.936 15.7295 12.936 15.731C12.936 15.7324 12.936 15.7339 12.936 15.7354C12.936 15.7369 12.936 15.7384 12.936 15.7399C12.936 15.7414 12.936 15.7428 12.936 15.7443C12.936 15.7458 12.936 15.7473 12.936 15.7488C12.936 15.7503 12.936 15.7518 12.936 15.7532C12.936 15.7547 12.936 15.7562 12.936 15.7577C12.936 15.7592 12.936 15.7607 12.936 15.7622C12.936 15.7637 12.936 15.7651 12.936 15.7666C12.936 15.7681 12.936 15.7696 12.936 15.7711C12.936 15.7726 12.936 15.7741 12.936 15.7756C12.936 15.777 12.936 15.7785 12.936 15.78C12.936 15.7815 12.936 15.783 12.936 15.7845C12.936 15.786 12.936 15.7875 12.936 15.789C12.936 15.7904 12.936 15.7919 12.936 15.7934C12.936 15.7949 12.936 15.7964 12.936 15.7979C12.936 15.7994 12.936 15.8009 12.936 15.8024C12.936 15.8039 12.936 15.8054 12.936 15.8068C12.936 15.8083 12.936 15.8098 12.936 15.8113C12.936 15.8128 12.936 15.8143 12.936 15.8158C12.936 15.8173 12.936 15.8188 12.936 15.8203C12.936 15.8218 12.936 15.8233 12.936 15.8248C12.936 15.8263 12.936 15.8277 12.936 15.8292C12.936 15.8307 12.936 15.8322 12.936 15.8337C12.936 15.8352 12.936 15.8367 12.936 15.8382C12.936 15.8397 12.936 15.8412 12.936 15.8427C12.936 15.8442 12.936 15.8457 12.936 15.8472C12.936 15.8487 12.936 15.8502 12.936 15.8517C12.936 15.8532 12.936 15.8547 12.936 15.8561C12.936 15.8576 12.936 15.8591 12.936 15.8606C12.936 15.8621 12.936 15.8636 12.936 15.8651C12.936 15.8666 12.936 15.8681 12.936 15.8696C12.936 15.8711 12.936 15.8726 12.936 15.8741C12.936 15.8756 12.936 15.8771 12.936 15.8786C12.936 15.8801 12.936 15.8816 12.936 15.8831C12.936 15.8846 12.936 15.8861 12.936 15.8876C12.936 15.8891 12.936 15.8906 12.936 15.8921C12.936 15.8936 12.936 15.8951 12.936 15.8966C12.936 15.8981 12.936 15.8996 12.936 15.9011C12.936 15.9026 12.936 15.9041 12.936 15.9056C12.936 15.9071 12.936 15.9086 12.936 15.9101C12.936 15.9116 12.936 15.9131 12.936 15.9146C12.936 15.9161 12.936 15.9176 12.936 15.9191C12.936 15.9206 12.936 15.9221 12.936 15.9236C12.936 15.9251 12.936 15.9266 12.936 15.9281C12.936 15.9296 12.936 15.9311 12.936 15.9326C12.936 15.9341 12.936 15.9356 12.936 15.9372C12.936 15.9387 12.936 15.9402 12.936 15.9417C12.936 15.9432 12.936 15.9447 12.936 15.9462C12.936 15.9477 12.936 15.9492 12.936 15.9507C12.936 15.9522 12.936 15.9537 12.936 15.9552C12.936 15.9567 12.936 15.9582 12.936 15.9597C12.936 15.9612 12.936 15.9627 12.936 15.9642C12.936 15.9658 12.936 15.9673 12.936 15.9688C12.936 15.9703 12.936 15.9718 12.936 15.9733C12.936 15.9748 12.936 15.9763 12.936 15.9778C12.936 15.9793 12.936 15.9808 12.936 15.9823C12.936 15.9838 12.936 15.9853 12.936 15.9869C12.936 15.9884 12.936 15.9899 12.936 15.9914C12.936 15.9929 12.936 15.9944 12.936 15.9959C12.936 15.9974 12.936 15.9989 12.936 16.0004C12.936 16.0019 12.936 16.0035 12.936 16.005C12.936 16.0065 12.936 16.008 12.936 16.0095C12.936 16.011 12.936 16.0125 12.936 16.014C12.936 16.0155 12.936 16.0171 12.936 16.0186C12.936 16.0201 12.936 16.0216 12.936 16.0231C12.936 16.0246 12.936 16.0261 12.936 16.0276C12.936 16.0291 12.936 16.0307 12.936 16.0322C12.936 16.0337 12.936 16.0352 12.936 16.0367C12.936 16.0382 12.936 16.0397 12.936 16.0412C12.936 16.0428 12.936 16.0443 12.936 16.0458C12.936 16.0473 12.936 16.0488 12.936 16.0503C12.936 16.0518 12.936 16.0534 12.936 16.0549C12.936 16.0564 12.936 16.0579 12.936 16.0594C12.936 16.0609 12.936 16.0624 12.936 16.064C12.936 16.0655 12.936 16.067 12.936 16.0685C12.936 16.07 12.936 16.0715 12.936 16.0731C12.936 16.0746 12.936 16.0761 12.936 16.0776C12.936 16.0791 12.936 16.0806 12.936 16.0822C12.936 16.0837 12.936 16.0852 12.936 16.0867C12.936 16.0882 12.936 16.0897 12.936 16.0913C12.936 16.0928 12.936 16.0943 12.936 16.0958C12.936 16.0973 12.936 16.0988 12.936 16.1004C12.936 16.1019 12.936 16.1034 12.936 16.1049C12.936 16.1064 12.936 16.108 12.936 16.1095C12.936 16.111 12.936 16.1125 12.936 16.114C12.936 16.1156 12.936 16.1171 12.936 16.1186C12.936 16.1201 12.936 16.1216 12.936 16.1232C12.936 16.1247 12.936 16.1262 12.936 16.1277C12.936 16.1292 12.936 16.1308 12.936 16.1323C12.936 16.1338 12.936 16.1353 12.936 16.1368C12.936 16.1384 12.936 16.1399 12.936 16.1414C12.936 16.1429 12.936 16.1445 12.936 16.146C12.936 16.1475 12.936 16.149 12.936 16.1505C12.936 16.1521 12.936 16.1536 12.936 16.1551C12.936 16.1566 12.936 16.1582 12.936 16.1597C12.936 16.1612 12.936 16.1627 12.936 16.1643C12.936 16.1658 12.936 16.1673 12.936 16.1688C12.936 16.1704 12.936 16.1719 12.936 16.1734C12.936 16.1749 12.936 16.1765 12.936 16.178C12.936 16.1795 12.936 16.181 12.936 16.1826C12.936 16.1841 12.936 16.1856 12.936 16.1871C12.936 16.1887 12.936 16.1902 12.936 16.1917C12.936 16.1932 12.936 16.1948 12.936 16.1963C12.936 16.1978 12.936 16.1993 12.936 16.2009C12.936 16.2024 12.936 16.2039 12.936 16.2055C12.936 16.207 12.936 16.2085 12.936 16.21C12.936 16.2116 12.936 16.2131 12.936 16.2146C12.936 16.2162 12.936 16.2177 12.936 16.2192C12.936 16.2207 12.936 16.2223 12.936 16.2238C12.936 16.2253 12.936 16.2269 12.936 16.2284C12.936 16.2299 12.936 16.2314 12.936 16.233C12.936 16.2345 12.936 16.236 12.936 16.2376C12.936 16.2391 12.936 16.2406 12.936 16.2422C12.936 16.2437 12.936 16.2452 12.936 16.2467C12.936 16.2483 12.936 16.2498 12.936 16.2513C12.936 16.2529 12.936 16.2544 12.936 16.2559C12.936 16.2575 12.936 16.259 12.936 16.2605C12.936 16.2621 12.936 16.2636 12.936 16.2651C12.936 16.2667 12.936 16.2682 12.936 16.2697C12.936 16.2713 12.936 16.2728 12.936 16.2743C12.936 16.2759 12.936 16.2774 12.936 16.2789C12.936 16.2805 12.936 16.282 12.936 16.2835C12.936 16.2851 12.936 16.2866 12.936 16.2881C12.936 16.2897 12.936 16.2912 12.936 16.2927C12.936 16.2943 12.936 16.2958 12.936 16.2973C12.936 16.2989 12.936 16.3004 12.936 16.3019C12.936 16.3035 12.936 16.305 12.936 16.3065C12.936 16.3081 12.936 16.3096 12.936 16.3112C12.936 16.3127 12.936 16.3142 12.936 16.3158C12.936 16.3173 12.936 16.3188 12.936 16.3204C12.936 16.3219 12.936 16.3235 12.936 16.325C12.936 16.3265 12.936 16.3281 12.936 16.3296C12.936 16.3311 12.936 16.3327 12.936 16.3342C12.936 16.3358 12.936 16.3373 12.936 16.3388C12.936 16.3404 12.936 16.3419 12.936 16.3434C12.936 16.345 12.936 16.3465 12.936 16.3481C12.936 16.3496 12.936 16.3511 12.936 16.3527C12.936 16.3542 12.936 16.3558 12.936 16.3573C12.936 16.3588 12.936 16.3604 12.936 16.3619C12.936 16.3635 12.936 16.365 12.936 16.3665C12.936 16.3681 12.936 16.3696 12.936 16.3712C12.936 16.3727 12.936 16.3742 12.936 16.3758C12.936 16.3773 12.936 16.3789 12.936 16.3804C12.936 16.382 12.936 16.3835 12.936 16.385C12.936 16.3866 12.936 16.3881 12.936 16.3897C12.936 16.3912 12.936 16.3928 12.936 16.3943C12.936 16.3958 12.936 16.3974 12.936 16.3989C12.936 16.4005 12.936 16.402 12.936 16.4036C12.936 16.4051 12.936 16.4066 12.936 16.4082C12.936 16.4097 12.936 16.4113 12.936 16.4128C12.936 16.4144 12.936 16.4159 12.936 16.4175C12.936 16.419 12.936 16.4205 12.936 16.4221C12.936 16.4236 12.936 16.4252 12.936 16.4267C12.936 16.4283 12.936 16.4298 12.936 16.4314C12.936 16.4329 12.936 16.4345 12.936 16.436C12.936 16.4375 12.936 16.4391 12.936 16.4406C12.936 16.4422 12.936 16.4437 12.936 16.4453C12.936 16.4468 12.936 16.4484 12.936 16.4499C12.936 16.4515 12.936 16.453 12.936 16.4546C12.936 16.4561 12.936 16.4577 12.936 16.4592C12.936 16.4608 12.936 16.4623 12.936 16.4638C12.936 16.4654 12.936 16.4669 12.936 16.4685C12.936 16.47 12.936 16.4716 12.936 16.4731C12.936 16.4747 12.936 16.4762 12.936 16.4778C12.936 16.4793 12.936 16.4809 12.936 16.4824C12.936 16.484 12.936 16.4855 12.936 16.4871C12.936 16.4886 12.936 16.4902 12.936 16.4917C12.936 16.4933 12.936 16.4948 12.936 16.4964C12.936 16.4979 12.936 16.4995 12.936 16.501C12.936 16.5026 12.936 16.5041 12.936 16.5057C12.936 16.5072 12.936 16.5088 12.936 16.5104C12.936 16.5119 12.936 16.5135 12.936 16.515C12.936 16.5166 12.936 16.5181 12.936 16.5197C12.936 16.5212 12.936 16.5228 12.936 16.5243C12.936 16.5259 12.936 16.5274 12.936 16.529C12.936 16.5305 12.936 16.5321 12.936 16.5336C12.936 16.5352 12.936 16.5368 12.936 16.5383C12.936 16.5399 12.936 16.5414 12.936 16.543C12.936 16.5445 12.936 16.5461 12.936 16.5476C12.936 16.5492 12.936 16.5507 12.936 16.5523C12.936 16.5539 12.936 16.5554 12.936 16.557C12.936 16.5585 12.936 16.5601 12.936 16.5616C12.936 16.5632 12.936 16.5647 12.936 16.5663C12.936 16.5679 12.936 16.5694 12.936 16.571C12.936 16.5725 12.936 16.5741 12.936 16.5756C12.936 16.5772 12.936 16.5788 12.936 16.5803C12.936 16.5819 12.936 16.5834 12.936 16.585C12.936 16.5865 12.936 16.5881 12.936 16.5897C12.936 16.5912 12.936 16.5928 12.936 16.5943C12.936 16.5959 12.936 16.5974 12.936 16.599C12.936 16.6006 12.936 16.6021 12.936 16.6037C12.936 16.6052 12.936 16.6068 12.936 16.6084C12.936 16.6099 12.936 16.6115 12.936 16.613C12.936 16.6146 12.936 16.6162 12.936 16.6177C12.936 16.6193 12.936 16.6208 12.936 16.6224C12.936 16.624 12.936 16.6255 12.936 16.6271C12.936 16.6286 12.936 16.6302 12.936 16.6318C12.936 16.6333 12.936 16.6349 12.936 16.6364C12.936 16.638 12.936 16.6396 12.936 16.6411C12.936 16.6427 12.936 16.6442 12.936 16.6458C12.936 16.6474 12.936 16.6489 12.936 16.6505C12.936 16.6521 12.936 16.6536 12.936 16.6552C12.936 16.6567 12.936 16.6583 12.936 16.6599C12.936 16.6614 12.936 16.663 12.936 16.6646C12.936 16.6661 12.936 16.6677 12.936 16.6693C12.936 16.6708 12.936 16.6724 12.936 16.6739C12.936 16.6755 12.936 16.6771 12.936 16.6786C12.936 16.6802 12.936 16.6818 12.936 16.6833C12.936 16.6849 12.936 16.6865 12.936 16.688C12.936 16.6896 12.936 16.6912 12.936 16.6927C12.936 16.6943 12.936 16.6958 12.936 16.6974C12.936 16.699 12.936 16.7005 12.936 16.7021C12.936 16.7037 12.936 16.7052 12.936 16.7068C12.936 16.7084 12.936 16.7099 12.936 16.7115C12.936 16.7131 12.936 16.7146 12.936 16.7162C12.936 16.7178 12.936 16.7193 12.936 16.7209C12.936 16.7225 12.936 16.724 12.936 16.7256C12.936 16.7272 12.936 16.7287 12.936 16.7303C12.936 16.7319 12.936 16.7335 12.936 16.735C12.936 16.7366 12.936 16.7382 12.936 16.7397C12.936 16.7413 12.936 16.7429 12.936 16.7444C12.936 16.746 12.936 16.7476 12.936 16.7491C12.936 16.7507 12.936 16.7523 12.936 16.7538C12.936 16.7554 12.936 16.757 12.936 16.7586C12.936 16.7601 12.936 16.7617 12.936 16.7633C12.936 16.7648 12.936 16.7664 12.936 16.768C12.936 16.7696 12.936 16.7711 12.936 16.7727C12.936 16.7743 12.936 16.7758 12.936 16.7774C12.936 16.779 12.936 16.7805 12.936 16.7821C12.936 16.7837 12.936 16.7853 12.936 16.7868C12.936 16.7884 12.936 16.79 12.936 16.7916C12.936 16.7931 12.936 16.7947 12.936 16.7963C12.936 16.7978 12.936 16.7994 12.936 16.801C12.936 16.8026 12.936 16.8041 12.936 16.8057C12.936 16.8073 12.936 16.8089 12.936 16.8104C12.936 16.812 12.936 16.8136 12.936 16.8151C12.936 16.8167 12.936 16.8183 12.936 16.8199C12.936 16.8214 12.936 16.823 12.936 16.8246C12.936 16.8262 12.936 16.8277 12.936 16.8293C12.936 16.8309 12.936 16.8325 12.936 16.834C12.936 16.8356 12.936 16.8372 12.936 16.8388C12.936 16.8403 12.936 16.8419 12.936 16.8435C12.936 16.8451 12.936 16.8466 12.936 16.8482C12.936 16.8498 12.936 16.8514 12.936 16.8529C12.936 16.8545 12.936 16.8561 12.936 16.8577C12.936 16.8593 12.936 16.8608 12.936 16.8624C12.936 16.864 12.936 16.8656 12.936 16.8671C12.936 16.8687 12.936 16.8703 12.936 16.8719C12.936 16.8734 12.936 16.875 12.936 16.8766C12.936 16.8782 12.936 16.8798 12.936 16.8813C12.936 16.8829 12.936 16.8845 12.936 16.8861C12.936 16.8877 12.936 16.8892 12.936 16.8908C12.936 16.8924 12.936 16.894 12.936 16.8955C12.936 16.8971 12.936 16.8987 12.936 16.9003C12.936 16.9019 12.936 16.9034 12.936 16.905C12.936 16.9066 12.936 16.9082 12.936 16.9098C12.936 16.9113 12.936 16.9129 12.936 16.9145C12.936 16.9161 12.936 16.9177 12.936 16.9192C12.936 16.9208 12.936 16.9224 12.936 16.924C12.936 16.9256 12.936 16.9272 12.936 16.9287C12.936 16.9303 12.936 16.9319 12.936 16.9335C12.936 16.9351 12.936 16.9366 12.936 16.9382C12.936 16.9398 12.936 16.9414 12.936 16.943C12.936 16.9446 12.936 16.9461 12.936 16.9477C12.936 16.9493 12.936 16.9509 12.936 16.9525C12.936 16.954 12.936 16.9556 12.936 16.9572C12.936 16.9588 12.936 16.9604 12.936 16.962C12.936 16.9635 12.936 16.9651 12.936 16.9667C12.936 16.9683 12.936 16.9699 12.936 16.9715C12.936 16.9731 12.936 16.9746 12.936 16.9762C12.936 16.9778 12.936 16.9794 12.936 16.981C12.936 16.9826 12.936 16.9841 12.936 16.9857C12.936 16.9873 12.936 16.9889 12.936 16.9905C12.936 16.9921 12.936 16.9937 12.936 16.9952C12.936 16.9968 12.936 16.9984 12.936 17H13.936C13.936 16.9984 13.936 16.9968 13.936 16.9952C13.936 16.9937 13.936 16.9921 13.936 16.9905C13.936 16.9889 13.936 16.9873 13.936 16.9857C13.936 16.9841 13.936 16.9826 13.936 16.981C13.936 16.9794 13.936 16.9778 13.936 16.9762C13.936 16.9746 13.936 16.9731 13.936 16.9715C13.936 16.9699 13.936 16.9683 13.936 16.9667C13.936 16.9651 13.936 16.9635 13.936 16.962C13.936 16.9604 13.936 16.9588 13.936 16.9572C13.936 16.9556 13.936 16.954 13.936 16.9525C13.936 16.9509 13.936 16.9493 13.936 16.9477C13.936 16.9461 13.936 16.9446 13.936 16.943C13.936 16.9414 13.936 16.9398 13.936 16.9382C13.936 16.9366 13.936 16.9351 13.936 16.9335C13.936 16.9319 13.936 16.9303 13.936 16.9287C13.936 16.9272 13.936 16.9256 13.936 16.924C13.936 16.9224 13.936 16.9208 13.936 16.9192C13.936 16.9177 13.936 16.9161 13.936 16.9145C13.936 16.9129 13.936 16.9113 13.936 16.9098C13.936 16.9082 13.936 16.9066 13.936 16.905C13.936 16.9034 13.936 16.9019 13.936 16.9003C13.936 16.8987 13.936 16.8971 13.936 16.8955C13.936 16.894 13.936 16.8924 13.936 16.8908C13.936 16.8892 13.936 16.8877 13.936 16.8861C13.936 16.8845 13.936 16.8829 13.936 16.8813C13.936 16.8798 13.936 16.8782 13.936 16.8766C13.936 16.875 13.936 16.8734 13.936 16.8719C13.936 16.8703 13.936 16.8687 13.936 16.8671C13.936 16.8656 13.936 16.864 13.936 16.8624C13.936 16.8608 13.936 16.8593 13.936 16.8577C13.936 16.8561 13.936 16.8545 13.936 16.8529C13.936 16.8514 13.936 16.8498 13.936 16.8482C13.936 16.8466 13.936 16.8451 13.936 16.8435C13.936 16.8419 13.936 16.8403 13.936 16.8388C13.936 16.8372 13.936 16.8356 13.936 16.834C13.936 16.8325 13.936 16.8309 13.936 16.8293C13.936 16.8277 13.936 16.8262 13.936 16.8246C13.936 16.823 13.936 16.8214 13.936 16.8199C13.936 16.8183 13.936 16.8167 13.936 16.8151C13.936 16.8136 13.936 16.812 13.936 16.8104C13.936 16.8089 13.936 16.8073 13.936 16.8057C13.936 16.8041 13.936 16.8026 13.936 16.801C13.936 16.7994 13.936 16.7978 13.936 16.7963C13.936 16.7947 13.936 16.7931 13.936 16.7916C13.936 16.79 13.936 16.7884 13.936 16.7868C13.936 16.7853 13.936 16.7837 13.936 16.7821C13.936 16.7805 13.936 16.779 13.936 16.7774C13.936 16.7758 13.936 16.7743 13.936 16.7727C13.936 16.7711 13.936 16.7696 13.936 16.768C13.936 16.7664 13.936 16.7648 13.936 16.7633C13.936 16.7617 13.936 16.7601 13.936 16.7586C13.936 16.757 13.936 16.7554 13.936 16.7538C13.936 16.7523 13.936 16.7507 13.936 16.7491C13.936 16.7476 13.936 16.746 13.936 16.7444C13.936 16.7429 13.936 16.7413 13.936 16.7397C13.936 16.7382 13.936 16.7366 13.936 16.735C13.936 16.7335 13.936 16.7319 13.936 16.7303C13.936 16.7287 13.936 16.7272 13.936 16.7256C13.936 16.724 13.936 16.7225 13.936 16.7209C13.936 16.7193 13.936 16.7178 13.936 16.7162C13.936 16.7146 13.936 16.7131 13.936 16.7115C13.936 16.7099 13.936 16.7084 13.936 16.7068C13.936 16.7052 13.936 16.7037 13.936 16.7021C13.936 16.7005 13.936 16.699 13.936 16.6974C13.936 16.6958 13.936 16.6943 13.936 16.6927C13.936 16.6912 13.936 16.6896 13.936 16.688C13.936 16.6865 13.936 16.6849 13.936 16.6833C13.936 16.6818 13.936 16.6802 13.936 16.6786C13.936 16.6771 13.936 16.6755 13.936 16.6739C13.936 16.6724 13.936 16.6708 13.936 16.6693C13.936 16.6677 13.936 16.6661 13.936 16.6646C13.936 16.663 13.936 16.6614 13.936 16.6599C13.936 16.6583 13.936 16.6567 13.936 16.6552C13.936 16.6536 13.936 16.6521 13.936 16.6505C13.936 16.6489 13.936 16.6474 13.936 16.6458C13.936 16.6442 13.936 16.6427 13.936 16.6411C13.936 16.6396 13.936 16.638 13.936 16.6364C13.936 16.6349 13.936 16.6333 13.936 16.6318C13.936 16.6302 13.936 16.6286 13.936 16.6271C13.936 16.6255 13.936 16.624 13.936 16.6224C13.936 16.6208 13.936 16.6193 13.936 16.6177C13.936 16.6162 13.936 16.6146 13.936 16.613C13.936 16.6115 13.936 16.6099 13.936 16.6084C13.936 16.6068 13.936 16.6052 13.936 16.6037C13.936 16.6021 13.936 16.6006 13.936 16.599C13.936 16.5974 13.936 16.5959 13.936 16.5943C13.936 16.5928 13.936 16.5912 13.936 16.5897C13.936 16.5881 13.936 16.5865 13.936 16.585C13.936 16.5834 13.936 16.5819 13.936 16.5803C13.936 16.5788 13.936 16.5772 13.936 16.5756C13.936 16.5741 13.936 16.5725 13.936 16.571C13.936 16.5694 13.936 16.5679 13.936 16.5663C13.936 16.5647 13.936 16.5632 13.936 16.5616C13.936 16.5601 13.936 16.5585 13.936 16.557C13.936 16.5554 13.936 16.5539 13.936 16.5523C13.936 16.5507 13.936 16.5492 13.936 16.5476C13.936 16.5461 13.936 16.5445 13.936 16.543C13.936 16.5414 13.936 16.5399 13.936 16.5383C13.936 16.5368 13.936 16.5352 13.936 16.5336C13.936 16.5321 13.936 16.5305 13.936 16.529C13.936 16.5274 13.936 16.5259 13.936 16.5243C13.936 16.5228 13.936 16.5212 13.936 16.5197C13.936 16.5181 13.936 16.5166 13.936 16.515C13.936 16.5135 13.936 16.5119 13.936 16.5104C13.936 16.5088 13.936 16.5072 13.936 16.5057C13.936 16.5041 13.936 16.5026 13.936 16.501C13.936 16.4995 13.936 16.4979 13.936 16.4964C13.936 16.4948 13.936 16.4933 13.936 16.4917C13.936 16.4902 13.936 16.4886 13.936 16.4871C13.936 16.4855 13.936 16.484 13.936 16.4824C13.936 16.4809 13.936 16.4793 13.936 16.4778C13.936 16.4762 13.936 16.4747 13.936 16.4731C13.936 16.4716 13.936 16.47 13.936 16.4685C13.936 16.4669 13.936 16.4654 13.936 16.4638C13.936 16.4623 13.936 16.4608 13.936 16.4592C13.936 16.4577 13.936 16.4561 13.936 16.4546C13.936 16.453 13.936 16.4515 13.936 16.4499C13.936 16.4484 13.936 16.4468 13.936 16.4453C13.936 16.4437 13.936 16.4422 13.936 16.4406C13.936 16.4391 13.936 16.4375 13.936 16.436C13.936 16.4345 13.936 16.4329 13.936 16.4314C13.936 16.4298 13.936 16.4283 13.936 16.4267C13.936 16.4252 13.936 16.4236 13.936 16.4221C13.936 16.4205 13.936 16.419 13.936 16.4175C13.936 16.4159 13.936 16.4144 13.936 16.4128C13.936 16.4113 13.936 16.4097 13.936 16.4082C13.936 16.4066 13.936 16.4051 13.936 16.4036C13.936 16.402 13.936 16.4005 13.936 16.3989C13.936 16.3974 13.936 16.3958 13.936 16.3943C13.936 16.3928 13.936 16.3912 13.936 16.3897C13.936 16.3881 13.936 16.3866 13.936 16.385C13.936 16.3835 13.936 16.382 13.936 16.3804C13.936 16.3789 13.936 16.3773 13.936 16.3758C13.936 16.3742 13.936 16.3727 13.936 16.3712C13.936 16.3696 13.936 16.3681 13.936 16.3665C13.936 16.365 13.936 16.3635 13.936 16.3619C13.936 16.3604 13.936 16.3588 13.936 16.3573C13.936 16.3558 13.936 16.3542 13.936 16.3527C13.936 16.3511 13.936 16.3496 13.936 16.3481C13.936 16.3465 13.936 16.345 13.936 16.3434C13.936 16.3419 13.936 16.3404 13.936 16.3388C13.936 16.3373 13.936 16.3358 13.936 16.3342C13.936 16.3327 13.936 16.3311 13.936 16.3296C13.936 16.3281 13.936 16.3265 13.936 16.325C13.936 16.3235 13.936 16.3219 13.936 16.3204C13.936 16.3188 13.936 16.3173 13.936 16.3158C13.936 16.3142 13.936 16.3127 13.936 16.3112C13.936 16.3096 13.936 16.3081 13.936 16.3065C13.936 16.305 13.936 16.3035 13.936 16.3019C13.936 16.3004 13.936 16.2989 13.936 16.2973C13.936 16.2958 13.936 16.2943 13.936 16.2927C13.936 16.2912 13.936 16.2897 13.936 16.2881C13.936 16.2866 13.936 16.2851 13.936 16.2835C13.936 16.282 13.936 16.2805 13.936 16.2789C13.936 16.2774 13.936 16.2759 13.936 16.2743C13.936 16.2728 13.936 16.2713 13.936 16.2697C13.936 16.2682 13.936 16.2667 13.936 16.2651C13.936 16.2636 13.936 16.2621 13.936 16.2605C13.936 16.259 13.936 16.2575 13.936 16.2559C13.936 16.2544 13.936 16.2529 13.936 16.2513C13.936 16.2498 13.936 16.2483 13.936 16.2467C13.936 16.2452 13.936 16.2437 13.936 16.2422C13.936 16.2406 13.936 16.2391 13.936 16.2376C13.936 16.236 13.936 16.2345 13.936 16.233C13.936 16.2314 13.936 16.2299 13.936 16.2284C13.936 16.2269 13.936 16.2253 13.936 16.2238C13.936 16.2223 13.936 16.2207 13.936 16.2192C13.936 16.2177 13.936 16.2162 13.936 16.2146C13.936 16.2131 13.936 16.2116 13.936 16.21C13.936 16.2085 13.936 16.207 13.936 16.2055C13.936 16.2039 13.936 16.2024 13.936 16.2009C13.936 16.1993 13.936 16.1978 13.936 16.1963C13.936 16.1948 13.936 16.1932 13.936 16.1917C13.936 16.1902 13.936 16.1887 13.936 16.1871C13.936 16.1856 13.936 16.1841 13.936 16.1826C13.936 16.181 13.936 16.1795 13.936 16.178C13.936 16.1765 13.936 16.1749 13.936 16.1734C13.936 16.1719 13.936 16.1704 13.936 16.1688C13.936 16.1673 13.936 16.1658 13.936 16.1643C13.936 16.1627 13.936 16.1612 13.936 16.1597C13.936 16.1582 13.936 16.1566 13.936 16.1551C13.936 16.1536 13.936 16.1521 13.936 16.1505C13.936 16.149 13.936 16.1475 13.936 16.146C13.936 16.1445 13.936 16.1429 13.936 16.1414C13.936 16.1399 13.936 16.1384 13.936 16.1368C13.936 16.1353 13.936 16.1338 13.936 16.1323C13.936 16.1308 13.936 16.1292 13.936 16.1277C13.936 16.1262 13.936 16.1247 13.936 16.1232C13.936 16.1216 13.936 16.1201 13.936 16.1186C13.936 16.1171 13.936 16.1156 13.936 16.114C13.936 16.1125 13.936 16.111 13.936 16.1095C13.936 16.108 13.936 16.1064 13.936 16.1049C13.936 16.1034 13.936 16.1019 13.936 16.1004C13.936 16.0988 13.936 16.0973 13.936 16.0958C13.936 16.0943 13.936 16.0928 13.936 16.0913C13.936 16.0897 13.936 16.0882 13.936 16.0867C13.936 16.0852 13.936 16.0837 13.936 16.0822C13.936 16.0806 13.936 16.0791 13.936 16.0776C13.936 16.0761 13.936 16.0746 13.936 16.0731C13.936 16.0715 13.936 16.07 13.936 16.0685C13.936 16.067 13.936 16.0655 13.936 16.064C13.936 16.0624 13.936 16.0609 13.936 16.0594C13.936 16.0579 13.936 16.0564 13.936 16.0549C13.936 16.0534 13.936 16.0518 13.936 16.0503C13.936 16.0488 13.936 16.0473 13.936 16.0458C13.936 16.0443 13.936 16.0428 13.936 16.0412C13.936 16.0397 13.936 16.0382 13.936 16.0367C13.936 16.0352 13.936 16.0337 13.936 16.0322C13.936 16.0307 13.936 16.0291 13.936 16.0276C13.936 16.0261 13.936 16.0246 13.936 16.0231C13.936 16.0216 13.936 16.0201 13.936 16.0186C13.936 16.0171 13.936 16.0155 13.936 16.014C13.936 16.0125 13.936 16.011 13.936 16.0095C13.936 16.008 13.936 16.0065 13.936 16.005C13.936 16.0035 13.936 16.0019 13.936 16.0004C13.936 15.9989 13.936 15.9974 13.936 15.9959C13.936 15.9944 13.936 15.9929 13.936 15.9914C13.936 15.9899 13.936 15.9884 13.936 15.9869C13.936 15.9853 13.936 15.9838 13.936 15.9823C13.936 15.9808 13.936 15.9793 13.936 15.9778C13.936 15.9763 13.936 15.9748 13.936 15.9733C13.936 15.9718 13.936 15.9703 13.936 15.9688C13.936 15.9673 13.936 15.9658 13.936 15.9642C13.936 15.9627 13.936 15.9612 13.936 15.9597C13.936 15.9582 13.936 15.9567 13.936 15.9552C13.936 15.9537 13.936 15.9522 13.936 15.9507C13.936 15.9492 13.936 15.9477 13.936 15.9462C13.936 15.9447 13.936 15.9432 13.936 15.9417C13.936 15.9402 13.936 15.9387 13.936 15.9372C13.936 15.9356 13.936 15.9341 13.936 15.9326C13.936 15.9311 13.936 15.9296 13.936 15.9281C13.936 15.9266 13.936 15.9251 13.936 15.9236C13.936 15.9221 13.936 15.9206 13.936 15.9191C13.936 15.9176 13.936 15.9161 13.936 15.9146C13.936 15.9131 13.936 15.9116 13.936 15.9101C13.936 15.9086 13.936 15.9071 13.936 15.9056C13.936 15.9041 13.936 15.9026 13.936 15.9011C13.936 15.8996 13.936 15.8981 13.936 15.8966C13.936 15.8951 13.936 15.8936 13.936 15.8921C13.936 15.8906 13.936 15.8891 13.936 15.8876C13.936 15.8861 13.936 15.8846 13.936 15.8831C13.936 15.8816 13.936 15.8801 13.936 15.8786C13.936 15.8771 13.936 15.8756 13.936 15.8741C13.936 15.8726 13.936 15.8711 13.936 15.8696C13.936 15.8681 13.936 15.8666 13.936 15.8651C13.936 15.8636 13.936 15.8621 13.936 15.8606C13.936 15.8591 13.936 15.8576 13.936 15.8561C13.936 15.8547 13.936 15.8532 13.936 15.8517C13.936 15.8502 13.936 15.8487 13.936 15.8472C13.936 15.8457 13.936 15.8442 13.936 15.8427C13.936 15.8412 13.936 15.8397 13.936 15.8382C13.936 15.8367 13.936 15.8352 13.936 15.8337C13.936 15.8322 13.936 15.8307 13.936 15.8292C13.936 15.8277 13.936 15.8263 13.936 15.8248C13.936 15.8233 13.936 15.8218 13.936 15.8203C13.936 15.8188 13.936 15.8173 13.936 15.8158C13.936 15.8143 13.936 15.8128 13.936 15.8113C13.936 15.8098 13.936 15.8083 13.936 15.8068C13.936 15.8054 13.936 15.8039 13.936 15.8024C13.936 15.8009 13.936 15.7994 13.936 15.7979C13.936 15.7964 13.936 15.7949 13.936 15.7934C13.936 15.7919 13.936 15.7904 13.936 15.789C13.936 15.7875 13.936 15.786 13.936 15.7845C13.936 15.783 13.936 15.7815 13.936 15.78C13.936 15.7785 13.936 15.777 13.936 15.7756C13.936 15.7741 13.936 15.7726 13.936 15.7711C13.936 15.7696 13.936 15.7681 13.936 15.7666C13.936 15.7651 13.936 15.7637 13.936 15.7622C13.936 15.7607 13.936 15.7592 13.936 15.7577C13.936 15.7562 13.936 15.7547 13.936 15.7532C13.936 15.7518 13.936 15.7503 13.936 15.7488C13.936 15.7473 13.936 15.7458 13.936 15.7443C13.936 15.7428 13.936 15.7414 13.936 15.7399C13.936 15.7384 13.936 15.7369 13.936 15.7354C13.936 15.7339 13.936 15.7324 13.936 15.731C13.936 15.7295 13.936 15.728 13.936 15.7265C13.936 15.725 13.936 15.7235 13.936 15.7221C13.936 15.7206 13.936 15.7191 13.936 15.7176C13.936 15.7161 13.936 15.7146 13.936 15.7132C13.936 15.7117 13.936 15.7102 13.936 15.7087C13.936 15.7072 13.936 15.7058 13.936 15.7043C13.936 15.7028 13.936 15.7013 13.936 15.6998C13.936 15.6983 13.936 15.6969 13.936 15.6954C13.936 15.6939 13.936 15.6924 13.936 15.6909C13.936 15.6895 13.936 15.688 13.936 15.6865C13.936 15.685 13.936 15.6835 13.936 15.6821C13.936 15.6806 13.936 15.6791 13.936 15.6776C13.936 15.6761 13.936 15.6747 13.936 15.6732C13.936 15.6717 13.936 15.6702 13.936 15.6688C13.936 15.6673 13.936 15.6658 13.936 15.6643C13.936 15.6628 13.936 15.6614 13.936 15.6599C13.936 15.6584 13.936 15.6569 13.936 15.6555C13.936 15.654 13.936 15.6525 13.936 15.651C13.936 15.6496 13.936 15.6481 13.936 15.6466C13.936 15.6451 13.936 15.6437 13.936 15.6422C13.936 15.6407 13.936 15.6392 13.936 15.6377C13.936 15.6363 13.936 15.6348 13.936 15.6333C13.936 15.6319 13.936 15.6304 13.936 15.6289C13.936 15.6274 13.936 15.626 13.936 15.6245C13.936 15.623 13.936 15.6215 13.936 15.6201C13.936 15.6186 13.936 15.6171 13.936 15.6156C13.936 15.6142 13.936 15.6127 13.936 15.6112C13.936 15.6098 13.936 15.6083 13.936 15.6068C13.936 15.6053 13.936 15.6039 13.936 15.6024C13.936 15.6009 13.936 15.5995 13.936 15.598C13.936 15.5965 13.936 15.595 13.936 15.5936C13.936 15.5921 13.936 15.5906 13.936 15.5892C13.936 15.5877 13.936 15.5862 13.936 15.5848C13.936 15.5833 13.936 15.5818 13.936 15.5803C13.936 15.5789 13.936 15.5774 13.936 15.5759C13.936 15.5745 13.936 15.573 13.936 15.5715C13.936 15.5701 13.936 15.5686 13.936 15.5671C13.936 15.5657 13.936 15.5642 13.936 15.5627C13.936 15.5613 13.936 15.5598 13.936 15.5583C13.936 15.5569 13.936 15.5554 13.936 15.5539C13.936 15.5525 13.936 15.551 13.936 15.5495C13.936 15.5481 13.936 15.5466 13.936 15.5451C13.936 15.5437 13.936 15.5422 13.936 15.5407C13.936 15.5393 13.936 15.5378 13.936 15.5363C13.936 15.5349 13.936 15.5334 13.936 15.5319C13.936 15.5305 13.936 15.529 13.936 15.5276C13.936 15.5261 13.936 15.5246 13.936 15.5232C13.936 15.5217 13.936 15.5202 13.936 15.5188C13.936 15.5173 13.936 15.5159 13.936 15.5144C13.936 15.5129 13.936 15.5115 13.936 15.51C13.936 15.5085 13.936 15.5071 13.936 15.5056C13.936 15.5042 13.936 15.5027 13.936 15.5012C13.936 15.4998 13.936 15.4983 13.936 15.4969C13.936 15.4954 13.936 15.4939 13.936 15.4925C13.936 15.491 13.936 15.4896 13.936 15.4881C13.936 15.4866 13.936 15.4852 13.936 15.4837C13.936 15.4823 13.936 15.4808 13.936 15.4793C13.936 15.4779 13.936 15.4764 13.936 15.475C13.936 15.4735 13.936 15.4721 13.936 15.4706C13.936 15.4691 13.936 15.4677 13.936 15.4662C13.936 15.4648 13.936 15.4633 13.936 15.4619C13.936 15.4604 13.936 15.4589 13.936 15.4575C13.936 15.456 13.936 15.4546 13.936 15.4531C13.936 15.4517 13.936 15.4502 13.936 15.4488C13.936 15.4473 13.936 15.4458 13.936 15.4444C13.936 15.4429 13.936 15.4415 13.936 15.44C13.936 15.4386 13.936 15.4371 13.936 15.4357C13.936 15.4342 13.936 15.4328 13.936 15.4313C13.936 15.4298 13.936 15.4284 13.936 15.4269C13.936 15.4255 13.936 15.424 13.936 15.4226C13.936 15.4211 13.936 15.4197 13.936 15.4182C13.936 15.4168 13.936 15.4153 13.936 15.4139C13.936 15.4124 13.936 15.411 13.936 15.4095C13.936 15.4081 13.936 15.4066 13.936 15.4052C13.936 15.4037 13.936 15.4023 13.936 15.4008C13.936 15.3994 13.936 15.3979 13.936 15.3965C13.936 15.395 13.936 15.3936 13.936 15.3921C13.936 15.3907 13.936 15.3892 13.936 15.3878C13.936 15.3863 13.936 15.3849 13.936 15.3834C13.936 15.382 13.936 15.3805 13.936 15.3791C13.936 15.3776 13.936 15.3762 13.936 15.3747C13.936 15.3733 13.936 15.3719 13.936 15.3704C13.936 15.369 13.936 15.3675 13.936 15.3661C13.936 15.3646 13.936 15.3632 13.936 15.3617C13.936 15.3603 13.936 15.3588 13.936 15.3574C13.936 15.3559 13.936 15.3545 13.936 15.3531C13.936 15.3516 13.936 15.3502 13.936 15.3487C13.936 15.3473 13.936 15.3458 13.936 15.3444C13.936 15.3429 13.936 15.3415 13.936 15.3401C13.936 15.3386 13.936 15.3372 13.936 15.3357C13.936 15.3343 13.936 15.3328 13.936 15.3314C13.936 15.33 13.936 15.3285 13.936 15.3271C13.936 15.3256 13.936 15.3242 13.936 15.3228C13.936 15.3213 13.936 15.3199 13.936 15.3184C13.936 15.317 13.936 15.3155 13.936 15.3141C13.936 15.3127 13.936 15.3112 13.936 15.3098C13.936 15.3083 13.936 15.3069 13.936 15.3055C13.936 15.304 13.936 15.3026 13.936 15.3012C13.936 15.2997 13.936 15.2983 13.936 15.2968C13.936 15.2954 13.936 15.294 13.936 15.2925C13.936 15.2911 13.936 15.2896 13.936 15.2882C13.936 15.2868 13.936 15.2853 13.936 15.2839C13.936 15.2825 13.936 15.281 13.936 15.2796C13.936 15.2782 13.936 15.2767 13.936 15.2753C13.936 15.2738 13.936 15.2724 13.936 15.271C13.936 15.2695 13.936 15.2681 13.936 15.2667C13.936 15.2652 13.936 15.2638 13.936 15.2624C13.936 15.2609 13.936 15.2595 13.936 15.2581C13.936 15.2566 13.936 15.2552 13.936 15.2538C13.936 15.2523 13.936 15.2509 13.936 15.2495C13.936 15.248 13.936 15.2466 13.936 15.2452C13.936 15.2437 13.936 15.2423 13.936 15.2409C13.936 15.2394 13.936 15.238 13.936 15.2366C13.936 15.2351 13.936 15.2337 13.936 15.2323C13.936 15.2308 13.936 15.2294 13.936 15.228C13.936 15.2266 13.936 15.2251 13.936 15.2237C13.936 15.2223 13.936 15.2208 13.936 15.2194C13.936 15.218 13.936 15.2165 13.936 15.2151C13.936 15.2137 13.936 15.2123 13.936 15.2108C13.936 15.2094 13.936 15.208 13.936 15.2065C13.936 15.2051 13.936 15.2037 13.936 15.2023C13.936 15.2008 13.936 15.1994 13.936 15.198C13.936 15.1966 13.936 15.1951 13.936 15.1937C13.936 15.1923 13.936 15.1908 13.936 15.1894C13.936 15.188 13.936 15.1866 13.936 15.1851C13.936 15.1837 13.936 15.1823 13.936 15.1809C13.936 15.1794 13.936 15.178 13.936 15.1766C13.936 15.1752 13.936 15.1737 13.936 15.1723C13.936 15.1709 13.936 15.1695 13.936 15.168C13.936 15.1666 13.936 15.1652 13.936 15.1638C13.936 15.1624 13.936 15.1609 13.936 15.1595C13.936 15.1581 13.936 15.1567 13.936 15.1552C13.936 15.1538 13.936 15.1524 13.936 15.151C13.936 15.1496 13.936 15.1481 13.936 15.1467C13.936 15.1453 13.936 15.1439 13.936 15.1425C13.936 15.141 13.936 15.1396 13.936 15.1382C13.936 15.1368 13.936 15.1354 13.936 15.1339C13.936 15.1325 13.936 15.1311 13.936 15.1297C13.936 15.1283 13.936 15.1268 13.936 15.1254C13.936 15.124 13.936 15.1226 13.936 15.1212C13.936 15.1197 13.936 15.1183 13.936 15.1169C13.936 15.1155 13.936 15.1141 13.936 15.1127C13.936 15.1112 13.936 15.1098 13.936 15.1084C13.936 15.107 13.936 15.1056 13.936 15.1042C13.936 15.1027 13.936 15.1013 13.936 15.0999C13.936 15.0985 13.936 15.0971 13.936 15.0957C13.936 15.0943 13.936 15.0928 13.936 15.0914C13.936 15.09 13.936 15.0886 13.936 15.0872C13.936 15.0858 13.936 15.0844 13.936 15.0829C13.936 15.0815 13.936 15.0801 13.936 15.0787C13.936 15.0773 13.936 15.0759 13.936 15.0745C13.936 15.0731 13.936 15.0716 13.936 15.0702C13.936 15.0688 13.936 15.0674 13.936 15.066C13.936 15.0646 13.936 15.0632 13.936 15.0618C13.936 15.0603 13.936 15.0589 13.936 15.0575C13.936 15.0561 13.936 15.0547 13.936 15.0533C13.936 15.0519 13.936 15.0505 13.936 15.0491C13.936 15.0477 13.936 15.0463 13.936 15.0448C13.936 15.0434 13.936 15.042 13.936 15.0406C13.936 15.0392 13.936 15.0378 13.936 15.0364C13.936 15.035 13.936 15.0336 13.936 15.0322C13.936 15.0308 13.936 15.0294 13.936 15.0279C13.936 15.0265 13.936 15.0251 13.936 15.0237C13.936 15.0223 13.936 15.0209 13.936 15.0195C13.936 15.0181 13.936 15.0167 13.936 15.0153C13.936 15.0139 13.936 15.0125 13.936 15.0111C13.936 15.0097 13.936 15.0083 13.936 15.0069C13.936 15.0055 13.936 15.0041 13.936 15.0027C13.936 15.0013 13.936 14.9999 13.936 14.9984C13.936 14.997 13.936 14.9956 13.936 14.9942C13.936 14.9928 13.936 14.9914 13.936 14.99C13.936 14.9886 13.936 14.9872 13.936 14.9858C13.936 14.9844 13.936 14.983 13.936 14.9816C13.936 14.9802 13.936 14.9788 13.936 14.9774C13.936 14.976 13.936 14.9746 13.936 14.9732C13.936 14.9718 13.936 14.9704 13.936 14.969C13.936 14.9676 13.936 14.9662 13.936 14.9648C13.936 14.9634 13.936 14.962 13.936 14.9606C13.936 14.9592 13.936 14.9578 13.936 14.9564C13.936 14.955 13.936 14.9536 13.936 14.9522C13.936 14.9508 13.936 14.9494 13.936 14.9481C13.936 14.9467 13.936 14.9453 13.936 14.9439C13.936 14.9425 13.936 14.9411 13.936 14.9397C13.936 14.9383 13.936 14.9369 13.936 14.9355C13.936 14.9341 13.936 14.9327 13.936 14.9313C13.936 14.9299 13.936 14.9285 13.936 14.9271C13.936 14.9257 13.936 14.9243 13.936 14.9229C13.936 14.9215 13.936 14.9202 13.936 14.9188C13.936 14.9174 13.936 14.916 13.936 14.9146C13.936 14.9132 13.936 14.9118 13.936 14.9104C13.936 14.909 13.936 14.9076 13.936 14.9062C13.936 14.9048 13.936 14.9034 13.936 14.9021C13.936 14.9007 13.936 14.8993 13.936 14.8979C13.936 14.8965 13.936 14.8951 13.936 14.8937C13.936 14.8923 13.936 14.8909 13.936 14.8895C13.936 14.8882 13.936 14.8868 13.936 14.8854C13.936 14.884 13.936 14.8826 13.936 14.8812C13.936 14.8798 13.936 14.8784 13.936 14.8771C13.936 14.8757 13.936 14.8743 13.936 14.8729C13.936 14.8715 13.936 14.8701 13.936 14.8687C13.936 14.8673 13.936 14.866 13.936 14.8646C13.936 14.8632 13.936 14.8618 13.936 14.8604C13.936 14.859 13.936 14.8576 13.936 14.8563C13.936 14.8549 13.936 14.8535 13.936 14.8521C13.936 14.8507 13.936 14.8493 13.936 14.848C13.936 14.8466 13.936 14.8452 13.936 14.8438C13.936 14.8424 13.936 14.841 13.936 14.8397C13.936 14.8383 13.936 14.8369 13.936 14.8355C13.936 14.8341 13.936 14.8327 13.936 14.8314C13.936 14.83 13.936 14.8286 13.936 14.8272C13.936 14.8258 13.936 14.8245 13.936 14.8231C13.936 14.8217 13.936 14.8203 13.936 14.8189C13.936 14.8175 13.936 14.8162 13.936 14.8148C13.936 14.8134 13.936 14.812 13.936 14.8107C13.936 14.8093 13.936 14.8079 13.936 14.8065C13.936 14.8051 13.936 14.8038 13.936 14.8024C13.936 14.801 13.936 14.7996 13.936 14.7982C13.936 14.7969 13.936 14.7955 13.936 14.7941C13.936 14.7927 13.936 14.7914 13.936 14.79C13.936 14.7886 13.936 14.7872 13.936 14.7859C13.936 14.7845 13.936 14.7831 13.936 14.7817C13.936 14.7804 13.936 14.779 13.936 14.7776C13.936 14.7762 13.936 14.7749 13.936 14.7735C13.936 14.7721 13.936 14.7707 13.936 14.7694C13.936 14.768 13.936 14.7666 13.936 14.7652C13.936 14.7639 13.936 14.7625 13.936 14.7611C13.936 14.7598 13.936 14.7584 13.936 14.757C13.936 14.7556 13.936 14.7543 13.936 14.7529C13.936 14.7515 13.936 14.7502 13.936 14.7488C13.936 14.7474 13.936 14.746 13.936 14.7447C13.936 14.7433 13.936 14.7419 13.936 14.7406C13.936 14.7392 13.936 14.7378 13.936 14.7365C13.936 14.7351 13.936 14.7337 13.936 14.7323C13.936 14.731 13.936 14.7296 13.936 14.7282C13.936 14.7269 13.936 14.7255 13.936 14.7241C13.936 14.7228 13.936 14.7214 13.936 14.72C13.936 14.7187 13.936 14.7173 13.936 14.7159H12.936ZM10.0052 11.7857C11.624 11.7857 12.936 13.0974 12.936 14.7159H13.936C13.936 12.5449 12.176 10.7857 10.0052 10.7857V11.7857ZM2.5 14.7159C2.5 13.0974 3.81206 11.7857 5.4308 11.7857V10.7857C3.25999 10.7857 1.5 12.5449 1.5 14.7159H2.5Z" fill="#BF1E77"/>
</svg>
