<svg width="36" height="36" viewBox="0 0 36 36" fill="none" xmlns="http://www.w3.org/2000/svg">
<circle cx="18" cy="18" r="17.5" stroke="#545155"/>
<path d="M26.1876 22.2109C26.1876 22.1424 26.1191 22.1424 26.1191 22.0739C25.8452 21.526 25.2287 20.841 24.4068 20.0876C23.9958 19.7451 23.7904 19.4712 23.6534 19.3342C23.4479 19.0602 23.4479 18.8547 23.5164 18.5808C23.5849 18.3753 23.8588 18.0328 24.3383 17.4164C24.6123 17.0739 24.7493 16.8684 24.9547 16.6629C25.9821 15.2931 26.4616 14.4027 26.3246 13.9917L26.2561 13.9232C26.1876 13.8547 26.1191 13.7862 25.9821 13.7862C25.8451 13.7177 25.6397 13.7177 25.4342 13.7862H22.8315C22.763 13.7862 22.763 13.7862 22.626 13.7862C22.5575 13.7862 22.489 13.7862 22.489 13.7862H22.4205H22.352L22.2835 13.8547C22.215 13.9232 22.215 13.9232 22.215 13.9917C21.941 14.7451 21.5986 15.3616 21.2561 16.0465C21.0506 16.389 20.8451 16.7314 20.6397 17.0054C20.4342 17.2794 20.2972 17.4849 20.1602 17.6218C20.0232 17.7588 19.8862 17.8273 19.8177 17.9643C19.7493 18.0328 19.6123 18.1013 19.6123 18.0328C19.5438 18.0328 19.4753 18.0328 19.4753 17.9643C19.4068 17.8958 19.3383 17.8273 19.2698 17.7588C19.2013 17.6903 19.2013 17.5533 19.1328 17.4164C19.1328 17.2794 19.1328 17.1424 19.1328 17.0739C19.1328 17.0054 19.1328 16.7999 19.1328 16.6629C19.1328 16.4575 19.1328 16.3205 19.1328 16.252C19.1328 16.0465 19.1328 15.7725 19.1328 15.4986C19.1328 15.2246 19.1328 15.0191 19.1328 14.8821C19.1328 14.7451 19.1328 14.5396 19.1328 14.4027C19.1328 14.1972 19.1328 14.0602 19.1328 13.9917C19.1328 13.9232 19.0643 13.7862 19.0643 13.7177C18.9958 13.6492 18.9273 13.5807 18.8588 13.5122C18.7903 13.4438 18.6534 13.4438 18.5849 13.3753C18.2424 13.3068 17.8315 13.2383 17.352 13.2383C16.2561 13.2383 15.5027 13.3068 15.2287 13.4438C15.0917 13.5123 14.9547 13.5807 14.8862 13.7177C14.7493 13.8547 14.7493 13.9232 14.8177 13.9232C15.1602 13.9917 15.4342 14.1287 15.5712 14.3342L15.6397 14.4712C15.7082 14.5397 15.7082 14.6766 15.7766 14.8821C15.8451 15.0876 15.8451 15.2931 15.8451 15.567C15.8451 15.978 15.8451 16.389 15.8451 16.6629C15.8451 17.0054 15.7766 17.2109 15.7766 17.4164C15.7766 17.6218 15.7082 17.7588 15.6397 17.8273C15.5712 17.9643 15.5712 18.0328 15.5027 18.0328C15.5027 18.0328 15.5027 18.1013 15.4342 18.1013C15.3657 18.1013 15.2972 18.1698 15.1602 18.1698C15.0917 18.1698 14.9547 18.1013 14.8862 18.0328C14.7493 17.9643 14.6123 17.8273 14.5438 17.6903C14.4068 17.5534 14.2698 17.3479 14.1328 17.0739C13.9958 16.7999 13.7903 16.526 13.6534 16.115L13.5164 15.841C13.4479 15.704 13.3109 15.4301 13.1739 15.0876C13.0369 14.7451 12.8999 14.4712 12.763 14.1287C12.6945 13.9917 12.626 13.9232 12.5575 13.8547H12.489C12.489 13.8547 12.4205 13.7862 12.352 13.7862C12.2835 13.7862 12.215 13.7177 12.1465 13.7177H9.68076C9.40679 13.7177 9.2698 13.7862 9.20131 13.8547L9.13281 13.9232C9.13281 13.9232 9.13281 13.9917 9.13281 14.0602C9.13281 14.1287 9.13282 14.1972 9.20131 14.3342C9.54378 15.1561 9.95473 15.978 10.3657 16.7999C10.7767 17.5534 11.1876 18.2383 11.4616 18.7177C11.8041 19.1972 12.078 19.6766 12.4205 20.0876C12.763 20.4986 12.9684 20.7725 13.0369 20.9095C13.1739 21.0465 13.2424 21.115 13.3109 21.1835L13.5164 21.389C13.6534 21.526 13.8588 21.7314 14.1328 21.9369C14.4068 22.1424 14.7493 22.3479 15.0917 22.5533C15.4342 22.7588 15.8452 22.8958 16.2561 23.0328C16.7356 23.1698 17.1465 23.2383 17.5575 23.1698H18.5849C18.7904 23.1698 18.9273 23.1013 19.0643 22.9643L19.1328 22.8958C19.1328 22.8273 19.2013 22.8273 19.2013 22.7588C19.2013 22.6903 19.2013 22.6218 19.2013 22.4849C19.2013 22.2109 19.2013 22.0054 19.2698 21.7999C19.3383 21.5945 19.3383 21.4575 19.4068 21.3205C19.4753 21.1835 19.5438 21.115 19.6123 21.0465C19.6808 20.978 19.7493 20.9095 19.7493 20.9095H19.8177C19.9547 20.841 20.1602 20.9095 20.2972 21.0465C20.5027 21.1835 20.7082 21.389 20.8451 21.5944C20.9821 21.7999 21.1876 22.0054 21.4616 22.2794C21.7356 22.5534 21.941 22.7588 22.078 22.8273L22.2835 22.9643C22.4205 23.0328 22.5575 23.1013 22.763 23.1698C22.9684 23.2383 23.1054 23.2383 23.2424 23.2383L25.5712 23.1698C25.7767 23.1698 25.9821 23.1013 26.1191 23.0328C26.2561 22.9643 26.3246 22.8958 26.3246 22.7588C26.3246 22.6903 26.3246 22.5534 26.3246 22.4849C26.1876 22.3479 26.1876 22.2794 26.1876 22.2109Z" fill="#545155"/>
</svg>
